<svg xmlns="http://www.w3.org/2000/svg" viewBox="0 0 376.72 109.47"><defs><style>.cls-1{fill:#fff;}</style></defs><g id="Lag_2" data-name="Lag 2"><g id="Layer_1" data-name="Layer 1"><path class="cls-1" d="M323.37,0c-24,0-43.38,10-50.46,27.91C265.83,10,246.4,0,222.45,0c-21.29,0-39,7.91-47.64,22.22C166.16,7.91,148.45,0,127.17,0,96.89,0,73.83,16,73.83,43.7A41.32,41.32,0,0,0,78,62.32L77,62.79c-1.38.54-2.88,1.05-4.53,1.54A52.62,52.62,0,0,1,58.8,66.1c-13.73,0-26-8.64-26-21.93,0-14.4,10.56-23,24.29-23,5.24,0,9.27.3,13.4,1.78,0,0,4.73-10.32,12.67-16.27C81.59,5.93,80,5.22,78.28,4.52v0C71.11,1.41,62.74,0,53.35,0,23.06,0,0,16,0,43.7,0,71.22,23.06,87.23,53.35,87.23a94.07,94.07,0,0,0,24.56-3.32A64.78,64.78,0,0,0,92.4,78.08c9.23,6,21.28,9.15,34.77,9.15,21.28,0,39-7.91,47.64-22.17,8.65,14.26,26.35,22.17,47.64,22.17S261.37,79.34,270,65.14v44.33h32.59V84.4a73.59,73.59,0,0,0,20.74,2.83c30.29,0,53.35-16,53.35-43.53C376.72,16,353.66,0,323.37,0ZM127.17,67.06c-14.61,0-20.59-11-20.59-23.36,0-12.49,6-23.54,20.59-23.54s20.6,11.05,20.6,23.54C147.77,56,141.79,67.06,127.17,67.06Zm95.28,0c-14.61,0-20.6-11-20.6-23.36,0-12.49,6-23.54,20.6-23.54S243,31.21,243,43.7C243,56,237.06,67.06,222.45,67.06Zm100.92,0c-14.61,0-20.6-11-20.6-23.36,0-12.49,6-23.54,20.6-23.54S344,31.21,344,43.7C344,56,338,67.06,323.37,67.06Z"/></g></g></svg>