<svg xmlns="http://www.w3.org/2000/svg" viewBox="0 0 565 290.23"><defs><style>.cls-1{fill:#fff;}.cls-2{fill:#1d1d1b;}</style></defs><g id="Lag_2" data-name="Lag 2"><g id="Layer_1" data-name="Layer 1"><path class="cls-1" d="M485.4,0c-35.74,0-64.72,15-75.28,41.64C399.56,15,370.58,0,334.84,0c-31.75,0-58.16,11.8-71.07,33.15C250.86,11.8,224.45,0,192.7,0c-45.17,0-79.58,23.87-79.58,65.19A61.69,61.69,0,0,0,119.37,93l-1.57.69c-2.06.81-4.3,1.58-6.77,2.3a78,78,0,0,1-20.32,2.64c-20.49,0-38.87-12.89-38.87-32.72,0-21.48,15.76-34.37,36.24-34.37,7.81,0,13.82.45,20,2.66,0,0,7.06-15.4,18.91-24.27-2.27-1.07-4.65-2.12-7.21-3.16v0C109.06,2.11,96.59,0,82.57,0,37.39,0,3,23.87,3,65.19c0,41.07,34.41,64.94,79.59,64.94a140.83,140.83,0,0,0,36.64-4.94,97.86,97.86,0,0,0,21.63-8.7c13.76,8.89,31.74,13.64,51.86,13.64,31.75,0,58.16-11.8,71.07-33.06,12.91,21.26,39.32,33.06,71.07,33.06s58.07-11.76,71-32.95v66.13h48.62v-37.4a110,110,0,0,0,30.94,4.22c45.19,0,79.6-23.87,79.6-64.94C565,23.87,530.59,0,485.4,0ZM192.7,100.05c-21.8,0-30.72-16.48-30.72-34.86,0-18.63,8.92-35.11,30.72-35.11s30.74,16.48,30.74,35.11C223.44,83.57,214.51,100.05,192.7,100.05Zm142.14,0c-21.79,0-30.73-16.48-30.73-34.86,0-18.63,8.94-35.11,30.73-35.11s30.73,16.48,30.73,35.11C365.57,83.57,356.64,100.05,334.84,100.05Zm150.56,0c-21.79,0-30.73-16.48-30.73-34.86,0-18.63,8.94-35.11,30.73-35.11s30.73,16.48,30.73,35.11C516.13,83.57,507.21,100.05,485.4,100.05Z"/><path class="cls-2" d="M469,256.57l.13,30.48a158.58,158.58,0,0,1-30.87,3.18c-45.09,0-49.92-27.69-49.92-48.27,0-32.77,20.45-47.89,52.46-47.89a176.4,176.4,0,0,1,28.84,2.67v24.77h-16L449.19,207s-5.85-.51-8.64-.51c-23.63,0-32,15.12-32,36.33,0,17.15,3.18,34.8,31.76,34.8,3.93,0,9-.51,9-.51V256.23l-9.49-5.43,0-10.63h43.56v11.69Z"/><path class="cls-2" d="M83.48,256.57l.12,30.48a158.41,158.41,0,0,1-30.86,3.18C7.65,290.23,2.82,262.54,2.82,242c0-32.77,20.45-47.89,52.46-47.89a176.36,176.36,0,0,1,28.83,2.67v24.77h-16L63.66,207s-5.84-.51-8.64-.51c-23.62,0-32,15.12-32,36.33,0,17.15,3.18,34.8,31.76,34.8,3.94,0,9-.51,9-.51V256.23l-9.5-5.43V240.17H97.83v11.69Z"/><path class="cls-2" d="M153.5,288.19v-9.9l10.29-4.45L159,258.34h-33l-5,15.88,10.29,4.07v9.9h-38v-9.9l9.91-4.07,23-63.84-11.81-4.08V195.09h43.25l27.19,79.13,10.79,4.07v9.9Zm-9.27-78.5H140.8l-10.93,35.82H155Z"/><path class="cls-2" d="M261.73,288.19l-22.61-39.12h-8.77v24.39l11.56,4.45v10.28H198.34V277.91l12.32-4.45v-63l-12.44-4.2V195h47.25c8.63,0,14.61,1.14,19.56,3.81,8.26,4.45,11.56,12.45,11.56,21.34,0,12.58-7.24,21.6-19.06,24.64l18.55,27.95,8.26,5.33v10.16Zm-12.07-79.13c-3.43-1.9-6.61-1.9-11.94-1.9h-7.37v29.21h6.48c5.34,0,8.76,0,12.32-1.91,5.08-2.79,7.11-7.36,7.11-12.7S254.74,211.86,249.66,209.06Z"/><path class="cls-2" d="M556.74,288.19H485V277.91l12.32-4.45v-63l-12.45-4.2V195h71.77v25.79H541.25l-5.08-13.59H517v26.29h28.32v13.72H517v28.7h21.84l6-12.32h15.37Z"/><path class="cls-2" d="M347.53,288.19v-9.9l10.29-4.45L353,258.34H320L315,274.22l10.29,4.07v9.9h-38v-9.9l9.91-4.07,23-63.84-11.81-4.08V195.09h43.25l27.18,79.13,10.8,4.07v9.9Zm-9.27-78.5h-3.43L323.9,245.51h25.15Z"/><rect class="cls-1" y="178.38" width="560.17" height="4.46"/></g></g></svg>