<svg xmlns="http://www.w3.org/2000/svg" viewBox="0 0 805.75 182.78"><defs><style>.cls-1{fill:#fff;}</style></defs><g id="Lag_2" data-name="Lag 2"><g id="Layer_1" data-name="Layer 1"><path class="cls-1" d="M175.43,64.16h14.82V85H207V64.16h14.81v56H207V97.92H190.25v22.22H175.44Z"/><path class="cls-1" d="M265.85,108.27H250.17l-2.76,11.88H232.25l17.1-56,17.91,0,17,56H268.59Zm-2.66-11.46-.95-3.87c-1.37-5.34-2.75-12.15-4.12-17.75h-.34c-1.21,5.68-2.6,12.4-4,17.74l-1,3.87Z"/><path class="cls-1" d="M294.75,64.19l21.71,0c12.05,0,22.39,4.45,22.41,18.57,0,13.69-10.65,19.65-22.36,19.67h-6.89l0,17.74-14.81,0Zm21.05,26.5c5.86,0,8.61-2.94,8.61-7.94s-3.11-6.88-8.63-6.88h-6.2l0,14.82Z"/><path class="cls-1" d="M351.4,64.19l21.7,0c12.06,0,22.4,4.43,22.43,18.56,0,13.69-10.64,19.65-22.35,19.67l-6.89,0,0,17.74-14.81,0Zm21.07,26.49c5.85,0,8.6-3,8.59-7.94s-3.11-6.89-8.62-6.88h-6.2l0,14.82Z"/><path class="cls-1" d="M418.79,100.86l-16.85-36.7,15.85,0,4.12,11.71c1.37,4.22,2.75,8.1,4.21,12.49h.35c1.46-4.39,2.93-8.26,4.4-12.48L435,64.19h15.5L433.6,100.88v19.29H418.77Z"/><path class="cls-1" d="M481.63,64.16h14.82l0,20.84,16.71,0,0-20.84,14.82,0-.07,56-14.81,0,0-22.22-16.7,0,0,22.22H481.57Z"/><path class="cls-1" d="M545.51,64.2h36.17v12.4H560.33v8.78h18.26v12.4H560.33v10h22.22v12.4h-37Z"/><path class="cls-1" d="M598.56,64.19h14.82v43.57h21.19v12.4h-36Z"/><path class="cls-1" d="M649.38,64.19h21.7c12,0,22.39,4.48,22.39,18.6,0,13.69-10.68,19.63-22.4,19.63h-6.88v17.75H649.37Zm21,26.52c5.85,0,8.61-2.93,8.61-7.92s-3.1-6.89-8.61-6.89h-6.2V90.71Z"/><path class="cls-1" d="M706,64.19h36.17v12.4H720.85v8.79h18.26V97.78H720.85v10h22.22v12.4H706Z"/><path class="cls-1" d="M789.22,120.16l-9.64-18.78h-5.69v18.78H759.07l0-56h21.19c12.06,0,22.39,4.14,22.38,18.09,0,8-3.62,13.27-9,16.19l12.13,21.71ZM773.9,89.67h5.34c5.85,0,9-2.58,9-7.4s-3.1-6.38-9-6.38H773.9Z"/><path class="cls-1" d="M113.21,19.26A66,66,0,0,0,66.44,0h-.29A66.44,66.44,0,0,0,0,66.71c.14,34,53.85,100.19,60,107.63l7,8.44,6.87-8.5c6.07-7.49,59.21-74.17,59.07-108.13A66,66,0,0,0,113.21,19.26Zm-46.41,135C48.68,130.94,17.94,87.1,17.85,66.64A48.57,48.57,0,0,1,66.23,17.85h.21A48.58,48.58,0,0,1,115,66.23C115.1,86.69,84.73,130.78,66.8,154.27Z"/><path class="cls-1" d="M82.64,84.43a22.84,22.84,0,0,1-32.26.13A5.95,5.95,0,1,0,42,93a34.45,34.45,0,0,0,24.43,10.06h.15A34.42,34.42,0,0,0,91.08,92.8a5.94,5.94,0,1,0-8.44-8.37Z"/></g></g></svg>