<svg xmlns="http://www.w3.org/2000/svg" viewBox="0 0 768.52 87.75"><defs><style>.cls-1{fill:#6d6d6c;}.cls-2{fill:#fdc61e;}.cls-3{fill:#616160;}.cls-4{fill:none;stroke:#6d6d6c;stroke-miterlimit:10;}</style></defs><g id="Lag_2" data-name="Lag 2"><g id="Lag_6" data-name="Lag 6"><path class="cls-1" d="M57.71,34.54q-4.1-3-12.31-4.72L32.89,27.13q-7.25-1.54-9.47-2.69A5.53,5.53,0,0,1,20,19.24a6.54,6.54,0,0,1,3.52-5.89,9.78,9.78,0,0,1,1.06-.57h0a19.68,19.68,0,0,1,8.34-1.55A24.29,24.29,0,0,1,39.4,12a16.13,16.13,0,0,1,2.34.84,10.79,10.79,0,0,1,2.1,1.25h0l.4.32a9,9,0,0,1,3.15,5.92c0,.27.06.54.08.82H61.7v-.84h0A18.59,18.59,0,0,0,53.31,5.42Q45.27,0,33.87,0,20.24,0,13.18,5.77a18,18,0,0,0-7,14.47q0,9.56,7.21,14.05Q17.62,37,29,39.26l7.71,1.55a36.44,36.44,0,0,1,9.92,3,5.48,5.48,0,0,1,3.16,5q0,5.52-6.38,7.54a18.64,18.64,0,0,1-2,.5h0a31,31,0,0,1-4,.48l-.43,0h-.11c-.59,0-1.19,0-1.82,0h-1c-.8,0-1.57,0-2.31-.11l-.35,0-1.05-.12c-.68-.1-1.33-.21-1.95-.35h-.13a17.6,17.6,0,0,1,.26,5.77A18.9,18.9,0,0,1,27,67.93l1.4.19h.11l1.09.11c.57.06,1.16.1,1.75.14s.93.05,1.4.06l1.13,0h1.28c.59,0,1.18,0,1.76,0h.54c1.38-.06,2.7-.16,4-.3h0q9.31-1.08,15.05-5.55,7.56-5.88,7.56-14.79Q64.05,39.13,57.71,34.54Z"/><path class="cls-2" d="M32.18,63a32.68,32.68,0,0,1-.83,5.42c-.59,0-1.18-.08-1.75-.14l-1.09-.11H28.4L27,67.93c-.46-.06-.92-.14-1.37-.22l-.18,0-1.1-.22c-1.09-.23-2.15-.5-3.17-.81l-1.12-.37c-.85-.29-1.67-.62-2.47-1l-.07,0h0a26.74,26.74,0,0,1-3.66-2L13,62.7l-.18-.13A19.47,19.47,0,0,1,7.56,56.9c-.21-.35-.41-.71-.59-1.08a19.22,19.22,0,0,1-2-7.88q0-.59,0-1.17s2.2,1.06,7,1.06a20.74,20.74,0,0,0,7.31-1.06c.05.36.12.72.19,1.06s.11.54.18.79h0v0c.1.37.2.72.31,1.06a11.65,11.65,0,0,0,.79,1.92,9.39,9.39,0,0,0,.66,1.08,7.08,7.08,0,0,0,.59.72l.13.15c.28.28.58.55.89.81a11.07,11.07,0,0,0,1.58,1c.31.17.64.32,1,.47a12.92,12.92,0,0,0,1.41.53l.44.13c.31.09.63.18,1,.25h.08c.62.14,1.27.26,1.95.35q.51.07,1.05.12l.35,0A16.27,16.27,0,0,1,32.18,63Z"/><path class="cls-3" d="M61.7,20.34h0v2a.11.11,0,0,1,0,.07h0a4.91,4.91,0,0,1-1.18.65h0a18.34,18.34,0,0,1-5.59.72c-4.9,0-6.37-.52-6.91-.83a1.17,1.17,0,0,1-.54-.51.18.18,0,0,1,0-.08v-2a0,0,0,0,1,0,0c0-.08.2-.15.42-.16a47.5,47.5,0,0,1,6.94-.66,23.71,23.71,0,0,1,6.62.63c.18,0,.31.1.32.17h0Z"/><path class="cls-1" d="M19.41,47.8h0c-.07-.33-.13-.68-.18-1a20.56,20.56,0,0,1-7.31,1.07c-4.76,0-7-1.07-7-1.07v0l.06,0A24.9,24.9,0,0,1,12.06,46a25,25,0,0,1,7.08.78l.09,0C19.28,47.12,19.34,47.47,19.41,47.8Z"/><path class="cls-3" d="M19.41,47.8h0c-1.13.54-4,.92-7.34.92A23.9,23.9,0,0,1,5,47.91c0-.3,0-.6,0-.91v-.26l.06,0a17.52,17.52,0,0,0,6.9,1.08,20.87,20.87,0,0,0,7.23-1.07l.09,0C19.28,47.12,19.34,47.47,19.41,47.8Z"/><path class="cls-1" d="M20.35,52.21s1.21,3.25,3.66,4c0,0,.8.52,1.14.24s-2.24-1.41-2.75-1.85S20.35,52.21,20.35,52.21Z"/><path class="cls-1" d="M12,54c-.06-.19-.34-.3-.43-.19S12.07,54.28,12,54Z"/><path class="cls-1" d="M9.13,53.45c-.19,0-.41-.26-.38-.34s.34.07.45.18S9.22,53.45,9.13,53.45Z"/><path class="cls-1" d="M11.61,55.4c-.11-.11-.32-.22-.38-.13s.36.43.44.29S11.66,55.46,11.61,55.4Z"/><path class="cls-1" d="M12.19,61.5c-.11-.12-.32-.22-.39-.13s.37.42.45.29S12.24,61.56,12.19,61.5Z"/><path class="cls-1" d="M17.51,64.33c-.11-.12-.32-.23-.38-.13s.37.42.44.29S17.57,64.39,17.51,64.33Z"/><path class="cls-1" d="M9.92,58.18c-.06-.13-.27-.22-.33-.14S10,58.39,9.92,58.18Z"/><path class="cls-1" d="M14,61.83c-.05-.14-.26-.22-.33-.14S14,62,14,61.83Z"/><path class="cls-1" d="M13.88,63.14c-.05-.14-.26-.22-.33-.14S14,63.35,13.88,63.14Z"/><path class="cls-1" d="M16.48,60c-.05-.14-.26-.23-.33-.14S16.55,60.15,16.48,60Z"/><path class="cls-1" d="M17,62.75c-.05-.14-.26-.23-.33-.15S17.09,63,17,62.75Z"/><path class="cls-1" d="M8.66,56.76c-.05-.14-.26-.22-.33-.14S8.73,57,8.66,56.76Z"/><path class="cls-1" d="M19.24,61.36c0-.14-.26-.22-.33-.14S19.32,61.57,19.24,61.36Z"/><path class="cls-1" d="M11.51,57.78a.35.35,0,0,0-.31-.27c-.26,0,0,.33.2.35C11.47,57.86,11.51,57.83,11.51,57.78Z"/><path class="cls-1" d="M13.76,58.48c.1-.06-.06-.21-.23-.23S13.62,58.58,13.76,58.48Z"/><path class="cls-1" d="M8,51.67c.1-.06-.06-.21-.23-.24S7.86,51.77,8,51.67Z"/><path class="cls-1" d="M13.63,57.45c.09-.07-.06-.22-.24-.24S13.48,57.54,13.63,57.45Z"/><path class="cls-1" d="M15.54,61.29c.1-.06-.06-.21-.23-.23C15,61,15.4,61.39,15.54,61.29Z"/><path class="cls-1" d="M11.62,59.64c.1-.07-.06-.22-.23-.24C11.07,59.36,11.48,59.74,11.62,59.64Z"/><path class="cls-1" d="M19,62.8c0-.14-.26-.23-.33-.15S19.07,63,19,62.8Z"/><path class="cls-1" d="M24.46,65.74c.11,0,.12-.15-.09-.26s-.41.07-.12.23A.28.28,0,0,0,24.46,65.74Z"/><path class="cls-1" d="M22,64c.11,0,.12-.15-.09-.26s-.41.07-.12.23A.28.28,0,0,0,22,64Z"/><path class="cls-1" d="M28,65.17c0,.06-.06.07-.13.06s-.35-.17-.34-.29.1-.07.2,0h0l.08,0,.06,0C27.94,65.06,28,65.12,28,65.17Z"/><path class="cls-1" d="M23.41,63.4c-.11-.15-.31-.19-.32-.08S23.56,63.62,23.41,63.4Z"/><path class="cls-1" d="M26.21,67.62c-.1-.15-.3-.2-.32-.09S26.36,67.84,26.21,67.62Z"/><path class="cls-1" d="M20.22,64.73c-.1-.15-.3-.19-.32-.08S20.37,65,20.22,64.73Z"/><path class="cls-1" d="M19.66,65.62c-.1-.14-.3-.19-.32-.08S19.81,65.84,19.66,65.62Z"/><path class="cls-1" d="M21.76,66.72c0-.1-.14-.23-.29-.22S21.69,66.87,21.76,66.72Z"/><path class="cls-1" d="M23.26,66.14c0-.1-.15-.23-.29-.22S23.19,66.29,23.26,66.14Z"/><path class="cls-1" d="M26.05,64.71c0-.09-.15-.23-.29-.21S26,64.86,26.05,64.71Z"/><path class="cls-1" d="M8.39,49.57a.13.13,0,0,1,0-.07c.06-.1.4.08.41.24S8.37,49.73,8.39,49.57Z"/><path class="cls-1" d="M8.09,54.6c-.15-.1-.36-.15-.33,0s.52.37.47.18A.27.27,0,0,0,8.09,54.6Z"/><path class="cls-1" d="M5.42,49.47a2.11,2.11,0,0,1,0-.25.48.48,0,0,1,.15.11C5.67,49.47,5.54,49.51,5.42,49.47Z"/><path class="cls-1" d="M6.45,51.7c0-.12-.19-.24-.31-.2S6.43,51.87,6.45,51.7Z"/><path class="cls-1" d="M17.16,60.67c.56.41.54.93-.24.46-.41-.25-.6-.65-.15-.6A.76.76,0,0,1,17.16,60.67Z"/><path class="cls-1" d="M10.07,51.38c.56.41.54.93-.24.46-.41-.25-.6-.66-.15-.61A.76.76,0,0,1,10.07,51.38Z"/><path class="cls-1" d="M24,64.33a.17.17,0,0,1,.16-.09c.59,0,1.27.67.8.85-.46-.16-.77-.18-.95-.61A.16.16,0,0,1,24,64.33Z"/><path class="cls-1" d="M9,59c-.21-.27-.4-.54-.59-.83C8.92,58.24,9.4,58.81,9,59Z"/><path class="cls-1" d="M9.1,56A.27.27,0,0,1,9,56c-.26-.16-.28-.38-.14-.45s.9.1.95.38S9.38,56.11,9.1,56Z"/><path class="cls-1" d="M15.72,58.18l-.06,0h-.12c-.27,0-1-.41-1.06-.67s.18-.25.41-.23Z"/><path class="cls-1" d="M16,63.49H15.9c-.27,0-1-.42-1.06-.68s.43-.26.67-.18C15.94,62.75,16.62,63.39,16,63.49Z"/><path class="cls-1" d="M13.33,59.59c-.08.17-.47.19-.75,0s-.62-.53-.51-.74.44-.17.76,0S13.39,59.46,13.33,59.59Z"/><path class="cls-1" d="M21.18,62.48c-.27-.08-.57-.22-.72-.28a1.87,1.87,0,0,1-.37-.23c-.07-.11-.17-.28-.11-.31a1.14,1.14,0,0,1,.76.05h0l.53.27h0a.64.64,0,0,1,.19.31C21.5,62.45,21.4,62.54,21.18,62.48Z"/><path class="cls-1" d="M12,55.15a2.13,2.13,0,0,1-.37-.22c-.07-.11-.17-.28-.11-.31a1.47,1.47,0,0,1,1,.12.8.8,0,0,1,.49.51c0,.16-.06.25-.28.18A5.75,5.75,0,0,1,12,55.15Z"/><path class="cls-1" d="M27.88,65.21s0,0,0,0a1,1,0,0,1-.71-.13.92.92,0,0,1-.26-.54l.83.35h0l.07,0h0C27.88,65.07,27.91,65.17,27.88,65.21Z"/><path class="cls-1" d="M7.69,53.2A.88.88,0,0,1,7,53.09c-.16-.19-.3-.45-.25-.57s.43.07.67.18S7.75,53.12,7.69,53.2Z"/><path class="cls-1" d="M21.22,64.63a.88.88,0,0,1-.74-.11c-.16-.19-.3-.45-.25-.57s.43.07.66.18S21.28,64.55,21.22,64.63Z"/><path class="cls-1" d="M12.79,57.59a.88.88,0,0,1-.74-.11c-.16-.19-.3-.45-.24-.57s.42.07.66.17S12.85,57.51,12.79,57.59Z"/><path class="cls-1" d="M55.6,33.81c-.18-.63,6.93,4.39,6.39,7.07-.26,1.33-1-1.47-2.72-3.51S55.7,34.13,55.6,33.81Z"/><path class="cls-1" d="M14.29,33.34C14.47,34,7.36,29,7.9,26.27c.26-1.33,1,1.47,2.72,3.51S14.2,33,14.29,33.34Z"/><path class="cls-1" d="M43.84,14.11a10.79,10.79,0,0,0-2.1-1.25A16.13,16.13,0,0,0,39.4,12a17.77,17.77,0,0,0-6.47-1.27A19.66,19.66,0,0,0,24.6,12.3a14.9,14.9,0,0,1,9.59-2.7A14.3,14.3,0,0,1,43.84,14.11Z"/><path class="cls-4" d="M59.62,32a12.19,12.19,0,0,1,3.75,3.42,12,12,0,0,1,1.56,5.24"/><path class="cls-4" d="M61.69,28.69a16,16,0,0,1,4.56,5,19.78,19.78,0,0,1,1.9,7.57"/><path class="cls-4" d="M10.09,35.78A12.08,12.08,0,0,1,6,32.84a11.9,11.9,0,0,1-2.19-5"/><path class="cls-4" d="M8.45,39.34A16,16,0,0,1,3.31,35,19.8,19.8,0,0,1,.49,27.71"/><path class="cls-1" d="M117.27,62.89a6.08,6.08,0,0,1-6.19,6.29A6.17,6.17,0,0,1,106.26,67l-14-16.71-5.89,5.5v7.08a6.33,6.33,0,0,1-6.29,6.29,6.25,6.25,0,0,1-6.19-6.29V8.56a6.24,6.24,0,1,1,12.48,0V42L106.07,22a5.7,5.7,0,0,1,4.12-1.67,5.8,5.8,0,0,1,5.8,5.79,6,6,0,0,1-1.67,4.13L101.45,42.85,116,59.06A5.75,5.75,0,0,1,117.27,62.89Z"/><path class="cls-1" d="M121.39,44.71c0-13.46,9.43-24.86,25-24.86s25.16,11.4,25.16,24.86-9.44,25-25.16,25S121.39,58.27,121.39,44.71Zm37.24,0c0-7.37-4.43-13.75-12.19-13.75s-12.08,6.38-12.08,13.75,4.32,13.86,12.08,13.86S158.63,52.18,158.63,44.71Z"/><path class="cls-1" d="M226,8.56V62.89a6.37,6.37,0,0,1-6.29,6.48A6.5,6.5,0,0,1,213.35,63v-.4a18.61,18.61,0,0,1-14.54,7.08c-12,0-21-9-21-24.86,0-15.52,8.94-25,21-25a18.29,18.29,0,0,1,14.64,7.27V8.56a6.29,6.29,0,1,1,12.57,0Zm-12.57,44.6V36.36c-2.07-3.14-6.59-5.4-10.81-5.4-7.08,0-12,5.6-12,13.85s4.91,13.76,12,13.76C206.86,58.57,211.38,56.31,213.45,53.16Z"/><path class="cls-1" d="M286.54,44.81c0,15.82-9,24.86-21,24.86A18.61,18.61,0,0,1,251,62.59v.49a6.29,6.29,0,0,1-12.57-.19V8.56a6.24,6.24,0,1,1,12.47,0V27.12a18,18,0,0,1,14.64-7.27C277.6,19.85,286.54,29.29,286.54,44.81Zm-12.87,0c0-8.25-4.82-13.85-12.09-13.85-4,0-8.64,2.36-10.71,5.5v16.8c2.07,3.05,6.69,5.31,10.71,5.31C268.85,58.57,273.67,53.06,273.67,44.81Z"/><path class="cls-1" d="M317.49,19.85c14.14,0,23.77,10.62,23.77,23,0,4.12-2.65,5.89-7.37,5.89H306c.79,6,5.6,11,13.66,11a20.33,20.33,0,0,0,9.63-2.65,4.66,4.66,0,0,1,2.35-.59,4.89,4.89,0,0,1,2.26,9.24,31.55,31.55,0,0,1-15.62,3.93c-14.44,0-25.35-9.73-25.35-25C292.92,31,303,19.85,317.49,19.85Zm-11.7,20.44h23.39c-.3-4.52-3.44-10.51-11.69-10.51C309.72,29.78,306.38,35.57,305.79,40.29Z"/><path class="cls-1" d="M392.54,26.54a6.17,6.17,0,0,1-.49,2.35L378.1,63.28a9.51,9.51,0,0,1-17.59,0L346.56,28.8a6,6,0,0,1-.49-2.26,6.08,6.08,0,0,1,6.09-6.19,6,6,0,0,1,5.7,3.83l11.4,30.16,11.3-30.16a6.23,6.23,0,0,1,12,2.36Z"/><path class="cls-1" d="M456.4,59.45A16.53,16.53,0,0,0,465.05,57a6,6,0,0,1,2.36-.59,5,5,0,0,1,4.91,5,5.1,5.1,0,0,1-2.55,4.33,29.24,29.24,0,0,1-14.25,3.93c-7.66,0-13.95-2.46-18.28-8.65-3.93,5-11.29,8.65-19.74,8.65-10.42,0-19.85-4.91-19.85-15.53,0-10.41,8-15.52,17.19-15.52,6.49,0,12.58,2,16.21,5.7V37.93c0-4.71-4.52-7.86-11.29-7.86a21.76,21.76,0,0,0-11.5,3.25,3.92,3.92,0,0,1-2.36.68,4.9,4.9,0,0,1-4.81-4.91A4.79,4.79,0,0,1,403.45,25a32.27,32.27,0,0,1,17.78-5.11c8.35,0,13.95,2.95,16.6,8.16,3.44-4.52,8.26-8.16,17.2-8.16,13.16,0,22.1,10.62,22.1,23,0,4.12-2.65,5.89-7.36,5.89H443.63C444.51,54.54,448.84,59.45,456.4,59.45ZM420,47.07c-5.4,0-9.73,2.16-9.73,6.39s4.33,6.38,9.44,6.38c6.29,0,11.39-4.22,11.39-8v-.59C428.7,48.64,424.37,47.07,420,47.07Zm34.29-17.29c-7.07,0-10.31,5.79-10.81,10.51h21.62C464.85,35.77,461.91,29.78,454.24,29.78Z"/><path class="cls-1" d="M531.26,26.63V65.25c0,18.07-14,22.5-25.64,22.5-6.39,0-11.59-1.18-16.7-4.43a5.15,5.15,0,1,1,5.3-8.84,20.49,20.49,0,0,0,11.4,3c6,0,13.07-2.65,13.07-12V60.82c-3.83,4.72-8.85,7.37-14.64,7.37-11.89,0-20.93-8.35-20.93-24.17,0-15.52,8.94-24.17,20.93-24.17a18.27,18.27,0,0,1,14.64,7.27v-.78a6.23,6.23,0,0,1,6.38-6A6.31,6.31,0,0,1,531.26,26.63ZM518.69,51.69V36.36C516.62,33.22,512.1,31,508,31c-7.08,0-12,4.91-12,13.06s4.91,13.07,12,13.07A13.86,13.86,0,0,0,518.69,51.69Z"/><path class="cls-1" d="M565.16,19.85c14.14,0,23.77,10.62,23.77,23,0,4.12-2.65,5.89-7.37,5.89h-27.9c.79,6,5.6,11,13.66,11A20.33,20.33,0,0,0,577,57.09a4.66,4.66,0,0,1,2.35-.59,4.89,4.89,0,0,1,2.26,9.24,31.55,31.55,0,0,1-15.62,3.93c-14.44,0-25.35-9.73-25.35-25C540.59,31,550.71,19.85,565.16,19.85Zm-11.7,20.44h23.39c-.3-4.52-3.44-10.51-11.69-10.51C557.39,29.78,554.05,35.57,553.46,40.29Z"/><path class="cls-1" d="M598,62.89V8.56a6.24,6.24,0,1,1,12.48,0V62.89a6.24,6.24,0,1,1-12.48,0Z"/><path class="cls-1" d="M619.78,60.53a5.24,5.24,0,0,1,5.2-5.21,6,6,0,0,1,2.66.69,25.69,25.69,0,0,0,12.87,4c5.4,0,8-1.87,8-4.81,0-3.35-4.13-4.52-9.53-5.61-8.16-1.57-18.67-3.53-18.67-14.83,0-8,7-14.94,19.45-14.94a29.4,29.4,0,0,1,15.62,4.23,4.66,4.66,0,0,1,2.46,4.13A4.82,4.82,0,0,1,653,33a4.7,4.7,0,0,1-2.36-.59,20.73,20.73,0,0,0-10.81-3.05c-4.52,0-7.47,1.68-7.47,4.43,0,2.94,3.74,4,9,5.11,8.16,1.57,19.06,3.73,19.06,15.52,0,8.64-7.37,15.23-20.53,15.23a33.64,33.64,0,0,1-17.49-4.62A5.28,5.28,0,0,1,619.78,60.53Z"/><path class="cls-1" d="M691.2,19.85c14.15,0,23.78,10.62,23.78,23,0,4.12-2.65,5.89-7.37,5.89h-27.9c.78,6,5.6,11,13.65,11A20.3,20.3,0,0,0,703,57.09a4.7,4.7,0,0,1,2.36-.59,4.89,4.89,0,0,1,2.26,9.24A31.57,31.57,0,0,1,692,69.67c-14.45,0-25.35-9.73-25.35-25C666.64,31,676.76,19.85,691.2,19.85ZM679.51,40.29h23.38c-.29-4.52-3.44-10.51-11.69-10.51C683.44,29.78,680.1,35.57,679.51,40.29Z"/><path class="cls-1" d="M768.52,35v27.9a6.24,6.24,0,1,1-12.48,0V39.8c0-6.58-3.44-8.84-8.74-8.84a13.52,13.52,0,0,0-10.81,5.6V62.89a6.24,6.24,0,1,1-12.48,0V26.63a6.27,6.27,0,0,1,6.19-6.38,6.37,6.37,0,0,1,6.39,6.38V27a22.07,22.07,0,0,1,16.5-7.18C763.51,19.85,768.52,25.75,768.52,35Z"/></g></g></svg>