<svg xmlns="http://www.w3.org/2000/svg" viewBox="0 0 768.53 87.75"><defs><style>.cls-1{fill:#fff;}.cls-2{fill:#1d1d1b;}.cls-3{fill:#fdc61e;}.cls-4{fill:#dc9057;}.cls-5{fill:#e0e0e0;}.cls-6{fill:#edeada;}.cls-7{fill:none;stroke:#fac5a2;stroke-linecap:round;stroke-miterlimit:10;}</style></defs><g id="Lag_2" data-name="Lag 2"><g id="Lag_6" data-name="Lag 6"><path class="cls-1" d="M57.71,34.54q-4.08-3-12.31-4.72L32.89,27.13q-7.23-1.54-9.46-2.69A5.52,5.52,0,0,1,20,19.24a6.55,6.55,0,0,1,3.51-5.89,9.93,9.93,0,0,1,1.07-.57h0a19.68,19.68,0,0,1,8.34-1.55,24.34,24.34,0,0,1,6.53.79,15.58,15.58,0,0,1,2.33.84,10.88,10.88,0,0,1,2.11,1.25h0l.41.32a9,9,0,0,1,3.14,5.92c0,.27.07.54.09.82H61.7v-.84h0A18.62,18.62,0,0,0,53.32,5.42Q45.27,0,33.88,0,20.23,0,13.19,5.77a18,18,0,0,0-7,14.47q0,9.56,7.21,14.05Q17.64,37,29,39.26l7.71,1.55a36.41,36.41,0,0,1,9.93,3,5.49,5.49,0,0,1,3.16,5q0,5.52-6.38,7.54a18.84,18.84,0,0,1-2,.5,16.16,16.16,0,0,1,1.17,5.61,16.61,16.61,0,0,1-1.17,5.66q9.33-1.08,15.06-5.55,7.56-5.88,7.55-14.79Q64.05,39.13,57.71,34.54Z"/><path class="cls-2" d="M38.19,62.67c0,4.25-1.27,5.79-1.27,5.79-.57,0-1.16,0-1.76,0q-14.07,0-22.14-5.8A18.41,18.41,0,0,1,5,47.93c0-.38,0-.77,0-1.17,0,0,2.2,1.07,7,1.07a20.47,20.47,0,0,0,7.3-1.07c.06.37.12.73.19,1.07a11.71,11.71,0,0,0,2.53,5.6q3.72,4,12.71,4c.79,0,1.55,0,2.27,0H37C37.15,58.32,38.15,58.42,38.19,62.67Z"/><path class="cls-3" d="M32.18,63a32.82,32.82,0,0,1-.82,5.42c-.59,0-1.18-.08-1.76-.14l-1.08-.11H28.4L27,67.93c-.47-.06-.92-.14-1.37-.22l-.18,0-1.1-.22c-1.1-.23-2.15-.5-3.17-.81l-1.12-.37c-.85-.29-1.68-.62-2.47-1l-.08,0h0a26.74,26.74,0,0,1-3.66-2L13,62.7l-.18-.13A19.33,19.33,0,0,1,7.57,56.9q-.31-.52-.6-1.08a19.38,19.38,0,0,1-2-7.88c0-.39,0-.78,0-1.17,0,0,2.2,1.06,7,1.06a20.64,20.64,0,0,0,7.3-1.06c.06.36.12.72.19,1.06s.12.54.18.79h0v0c.09.37.19.72.3,1.06a12.59,12.59,0,0,0,.8,1.92,8.17,8.17,0,0,0,.66,1.08,7,7,0,0,0,.58.72l.14.15a11.58,11.58,0,0,0,.89.81,10.53,10.53,0,0,0,1.58,1c.31.17.64.32,1,.47a13.56,13.56,0,0,0,1.4.53l.45.13c.31.09.63.18,1,.25h.08c.61.14,1.26.26,1.94.35.35,0,.7.09,1.06.12l.35,0A16.32,16.32,0,0,1,32.18,63Z"/><path class="cls-4" d="M61.71,20.34h0v2a.09.09,0,0,1,0,.07h0a4.55,4.55,0,0,1-1.18.65h0a18.36,18.36,0,0,1-5.6.72c-4.89,0-6.36-.52-6.91-.83a1.12,1.12,0,0,1-.53-.51.18.18,0,0,1,0-.08s0-1.49,0-2v0a.54.54,0,0,1,.43-.16,47.28,47.28,0,0,1,6.93-.66,23.81,23.81,0,0,1,6.63.63c.18,0,.3.1.32.17h0Z"/><path class="cls-1" d="M42.61,62.49a16.61,16.61,0,0,1-1.17,5.66c-1.27.14-2.6.24-4,.3h-.55s1.31-1.54,1.27-5.79-1-4.35-1.16-5.28l.44,0a30.84,30.84,0,0,0,4-.48A16.16,16.16,0,0,1,42.61,62.49Z"/><path class="cls-5" d="M19.41,47.8h0c-.07-.33-.13-.68-.19-1a20.47,20.47,0,0,1-7.3,1.07c-4.76,0-7-1.07-7-1.07v0l0,0A25,25,0,0,1,12.07,46a24.82,24.82,0,0,1,7.07.78l.09,0C19.29,47.12,19.35,47.47,19.41,47.8Z"/><path class="cls-4" d="M19.41,47.8h0c-1.14.54-4,.92-7.34.92A24,24,0,0,1,5,47.91c0-.3,0-.6,0-.91v-.26l0,0a17.65,17.65,0,0,0,6.91,1.08,20.73,20.73,0,0,0,7.22-1.07l.09,0C19.29,47.12,19.35,47.47,19.41,47.8Z"/><path class="cls-4" d="M20.35,52.21s1.21,3.25,3.66,4c0,0,.81.52,1.15.24s-2.25-1.41-2.76-1.85S20.35,52.21,20.35,52.21Z"/><path class="cls-1" d="M37,57.39h-.11c-.58,0-1.19,0-1.82,0h-1c-.81,0-1.58,0-2.31-.11l-.35,0-1.06-.12c-.68-.1-1.33-.21-1.94-.35h-.13a17.88,17.88,0,0,1,.26,5.77A19.23,19.23,0,0,1,27,67.93l1.39.19h.12l1.08.11c.58.06,1.17.1,1.76.14s.92.05,1.39.06l1.14,0h1.27c.6,0,1.19,0,1.76,0,0,0,1.31-1.54,1.27-5.79S37.15,58.32,37,57.39Z"/><path class="cls-4" d="M12,54c-.07-.19-.35-.3-.44-.19S12.08,54.28,12,54Z"/><path class="cls-4" d="M9.13,53.45c-.18,0-.4-.26-.37-.34s.34.07.44.18S9.23,53.45,9.13,53.45Z"/><path class="cls-4" d="M11.62,55.4c-.11-.11-.33-.22-.39-.13s.37.43.44.29S11.67,55.46,11.62,55.4Z"/><path class="cls-4" d="M12.19,61.5c-.11-.12-.32-.22-.38-.13s.37.42.44.29S12.25,61.56,12.19,61.5Z"/><path class="cls-4" d="M17.52,64.33c-.11-.12-.32-.23-.38-.13s.36.42.44.29S17.57,64.39,17.52,64.33Z"/><path class="cls-4" d="M9.92,58.18c-.05-.13-.26-.22-.33-.14S10,58.39,9.92,58.18Z"/><path class="cls-4" d="M14,61.83c-.05-.14-.26-.22-.33-.14S14,62,14,61.83Z"/><path class="cls-4" d="M13.89,63.14c-.06-.14-.27-.22-.33-.14S14,63.35,13.89,63.14Z"/><path class="cls-4" d="M16.49,60c-.06-.14-.27-.23-.33-.14S16.56,60.15,16.49,60Z"/><path class="cls-4" d="M17,62.75c-.05-.14-.26-.23-.33-.15S17.1,63,17,62.75Z"/><path class="cls-4" d="M8.67,56.76c-.05-.14-.26-.22-.33-.14S8.74,57,8.67,56.76Z"/><path class="cls-4" d="M19.25,61.36c-.05-.14-.26-.22-.33-.14S19.32,61.57,19.25,61.36Z"/><path class="cls-4" d="M11.51,57.78c0-.09-.13-.25-.31-.27s0,.33.21.35C11.48,57.86,11.51,57.83,11.51,57.78Z"/><path class="cls-4" d="M13.77,58.48c.1-.06-.06-.21-.24-.23S13.63,58.58,13.77,58.48Z"/><path class="cls-4" d="M8,51.67c.09-.06-.06-.21-.24-.24S7.86,51.77,8,51.67Z"/><path class="cls-4" d="M13.63,57.45c.1-.07-.06-.22-.23-.24C13.08,57.17,13.49,57.54,13.63,57.45Z"/><path class="cls-4" d="M15.55,61.29c.1-.06-.06-.21-.24-.23S15.41,61.39,15.55,61.29Z"/><path class="cls-4" d="M11.63,59.64c.09-.07-.06-.22-.24-.24S11.48,59.74,11.63,59.64Z"/><path class="cls-4" d="M19,62.8c-.05-.14-.26-.23-.33-.15S19.07,63,19,62.8Z"/><path class="cls-4" d="M24.46,65.74c.11,0,.12-.15-.08-.26s-.41.07-.12.23A.25.25,0,0,0,24.46,65.74Z"/><path class="cls-4" d="M22,64c.11,0,.12-.15-.08-.26s-.41.07-.12.23A.25.25,0,0,0,22,64Z"/><path class="cls-4" d="M28,65.17c0,.06-.06.07-.13.06s-.35-.17-.34-.29.09-.07.2,0h0l.08,0,.06,0C28,65.06,28,65.12,28,65.17Z"/><path class="cls-4" d="M23.41,63.4c-.1-.15-.3-.19-.31-.08S23.56,63.62,23.41,63.4Z"/><path class="cls-4" d="M26.22,67.62c-.1-.15-.31-.2-.32-.09S26.37,67.84,26.22,67.62Z"/><path class="cls-4" d="M20.22,64.73c-.1-.15-.3-.19-.31-.08S20.38,65,20.22,64.73Z"/><path class="cls-4" d="M19.67,65.62c-.1-.14-.31-.19-.32-.08S19.82,65.84,19.67,65.62Z"/><path class="cls-4" d="M21.76,66.72c0-.1-.14-.23-.28-.22S21.7,66.87,21.76,66.72Z"/><path class="cls-4" d="M23.26,66.14c0-.1-.14-.23-.28-.22S23.2,66.29,23.26,66.14Z"/><path class="cls-4" d="M26.05,64.71c.05-.09-.14-.23-.29-.21S26,64.86,26.05,64.71Z"/><path class="cls-4" d="M8.4,49.57a.25.25,0,0,1,0-.07c.06-.1.41.08.42.24S8.38,49.73,8.4,49.57Z"/><path class="cls-4" d="M8.09,54.6c-.14-.1-.35-.15-.32,0s.52.37.47.18A.26.26,0,0,0,8.09,54.6Z"/><path class="cls-4" d="M5.43,49.47l0-.25a.51.51,0,0,1,.16.11C5.67,49.47,5.55,49.51,5.43,49.47Z"/><path class="cls-4" d="M6.46,51.7c0-.12-.19-.24-.31-.2S6.44,51.87,6.46,51.7Z"/><path class="cls-4" d="M17.17,60.67c.56.41.54.93-.25.46-.4-.25-.59-.65-.15-.6A.79.79,0,0,1,17.17,60.67Z"/><path class="cls-4" d="M10.08,51.38c.56.41.54.93-.25.46-.4-.25-.59-.66-.15-.61A.8.8,0,0,1,10.08,51.38Z"/><path class="cls-4" d="M24,64.33a.17.17,0,0,1,.16-.09c.59,0,1.27.67.79.85-.45-.16-.76-.18-.95-.61A.19.19,0,0,1,24,64.33Z"/><path class="cls-4" d="M9,59c-.2-.27-.4-.54-.58-.83C8.93,58.24,9.4,58.81,9,59Z"/><path class="cls-4" d="M9.11,56A.31.31,0,0,1,9,56c-.26-.16-.27-.38-.14-.45s.91.1,1,.38S9.38,56.11,9.11,56Z"/><path class="cls-4" d="M15.72,58.18l-.05,0h-.12c-.27,0-1-.41-1.06-.67s.17-.25.4-.23Z"/><path class="cls-4" d="M16,63.49h-.12c-.27,0-1-.42-1.06-.68s.43-.26.67-.18C16,62.75,16.62,63.39,16,63.49Z"/><path class="cls-4" d="M13.33,59.59c-.08.17-.47.19-.74,0-.42-.22-.63-.53-.51-.74s.44-.17.75,0S13.4,59.46,13.33,59.59Z"/><path class="cls-4" d="M21.19,62.48a6.88,6.88,0,0,1-.72-.28,2.7,2.7,0,0,1-.38-.23c-.06-.11-.16-.28-.11-.31a1.14,1.14,0,0,1,.76.05h0l.52.27h0a.73.73,0,0,1,.19.31C21.51,62.45,21.41,62.54,21.19,62.48Z"/><path class="cls-4" d="M12,55.15a3.24,3.24,0,0,1-.38-.22c-.06-.11-.16-.28-.11-.31a1.5,1.5,0,0,1,1,.12.8.8,0,0,1,.49.51c0,.16-.06.25-.28.18A5.75,5.75,0,0,1,12,55.15Z"/><path class="cls-4" d="M27.89,65.21s0,0,0,0a1,1,0,0,1-.72-.13,1,1,0,0,1-.25-.54l.83.35h0l.07,0h0C27.88,65.07,27.92,65.17,27.89,65.21Z"/><path class="cls-4" d="M7.7,53.2A.88.88,0,0,1,7,53.09c-.16-.19-.3-.45-.25-.57s.42.07.66.18S7.76,53.12,7.7,53.2Z"/><path class="cls-4" d="M21.23,64.63a.88.88,0,0,1-.74-.11c-.16-.19-.3-.45-.25-.57s.42.07.66.18S21.28,64.55,21.23,64.63Z"/><path class="cls-4" d="M12.8,57.59a.88.88,0,0,1-.74-.11c-.16-.19-.3-.45-.25-.57s.42.07.66.17S12.86,57.51,12.8,57.59Z"/><path class="cls-6" d="M55.61,33.81c-.18-.63,6.92,4.39,6.39,7.07-.27,1.33-1-1.47-2.72-3.51S55.7,34.13,55.61,33.81Z"/><path class="cls-6" d="M14.3,33.34c.18.64-6.93-4.38-6.39-7.07.26-1.33,1,1.47,2.72,3.51S14.2,33,14.3,33.34Z"/><path class="cls-6" d="M43.85,14.11a10.88,10.88,0,0,0-2.11-1.25A15.58,15.58,0,0,0,39.41,12a17.82,17.82,0,0,0-6.47-1.27A19.68,19.68,0,0,0,24.6,12.3a14.92,14.92,0,0,1,9.59-2.7A14.31,14.31,0,0,1,43.85,14.11Z"/><path class="cls-7" d="M59.63,32a12.19,12.19,0,0,1,3.75,3.42,12,12,0,0,1,1.56,5.24"/><path class="cls-7" d="M61.69,28.69a16,16,0,0,1,4.57,5,19.78,19.78,0,0,1,1.9,7.57"/><path class="cls-7" d="M10.1,35.78A12.08,12.08,0,0,1,6,32.84a11.9,11.9,0,0,1-2.19-5"/><path class="cls-7" d="M8.46,39.34A15.84,15.84,0,0,1,3.32,35,19.8,19.8,0,0,1,.5,27.71"/><path class="cls-1" d="M117.27,62.89a6.07,6.07,0,0,1-6.19,6.29A6.17,6.17,0,0,1,106.27,67l-14-16.71-5.9,5.5v7.08a6.33,6.33,0,0,1-6.29,6.29,6.25,6.25,0,0,1-6.19-6.29V8.56a6.24,6.24,0,1,1,12.48,0V42L106.07,22a5.72,5.72,0,0,1,4.13-1.67,5.81,5.81,0,0,1,5.8,5.79,6,6,0,0,1-1.67,4.13L101.46,42.85,116,59.06A5.8,5.8,0,0,1,117.27,62.89Z"/><path class="cls-1" d="M121.4,44.71c0-13.46,9.43-24.86,25-24.86s25.15,11.4,25.15,24.86-9.43,25-25.15,25S121.4,58.27,121.4,44.71Zm37.23,0c0-7.37-4.42-13.75-12.18-13.75s-12.09,6.38-12.09,13.75,4.33,13.86,12.09,13.86S158.63,52.18,158.63,44.71Z"/><path class="cls-1" d="M226,8.56V62.89a6.37,6.37,0,0,1-6.29,6.48A6.51,6.51,0,0,1,213.35,63v-.4a18.61,18.61,0,0,1-14.54,7.08c-12,0-21-9-21-24.86,0-15.52,8.94-25,21-25a18.27,18.27,0,0,1,14.64,7.27V8.56a6.29,6.29,0,1,1,12.58,0Zm-12.58,44.6V36.36c-2.06-3.14-6.58-5.4-10.81-5.4-7.07,0-12,5.6-12,13.85s4.91,13.76,12,13.76C206.87,58.57,211.39,56.31,213.45,53.16Z"/><path class="cls-1" d="M286.55,44.81c0,15.82-9,24.86-21,24.86A18.61,18.61,0,0,1,251,62.59v.49a6.29,6.29,0,0,1-12.58-.19V8.56a6.24,6.24,0,1,1,12.48,0V27.12a18,18,0,0,1,14.64-7.27C277.61,19.85,286.55,29.29,286.55,44.81Zm-12.87,0c0-8.25-4.82-13.85-12.09-13.85-4,0-8.65,2.36-10.71,5.5v16.8c2.06,3.05,6.68,5.31,10.71,5.31C268.86,58.57,273.68,53.06,273.68,44.81Z"/><path class="cls-1" d="M317.49,19.85c14.15,0,23.78,10.62,23.78,23,0,4.12-2.65,5.89-7.37,5.89H306c.78,6,5.6,11,13.65,11a20.3,20.3,0,0,0,9.63-2.65,4.72,4.72,0,0,1,2.36-.59,4.89,4.89,0,0,1,2.26,9.24,31.57,31.57,0,0,1-15.62,3.93c-14.45,0-25.35-9.73-25.35-25C292.93,31,303.05,19.85,317.49,19.85ZM305.8,40.29h23.38c-.29-4.52-3.44-10.51-11.69-10.51C309.73,29.78,306.39,35.57,305.8,40.29Z"/><path class="cls-1" d="M392.55,26.54a6.37,6.37,0,0,1-.49,2.35L378.11,63.28a9.51,9.51,0,0,1-17.59,0L346.57,28.8a5.77,5.77,0,0,1-.49-2.26,6.08,6.08,0,0,1,6.09-6.19,6,6,0,0,1,5.7,3.83l11.4,30.16,11.29-30.16a6.24,6.24,0,0,1,12,2.36Z"/><path class="cls-1" d="M456.41,59.45A16.56,16.56,0,0,0,465.06,57a6,6,0,0,1,2.35-.59,5,5,0,0,1,4.92,5,5.09,5.09,0,0,1-2.56,4.33,29.23,29.23,0,0,1-14.24,3.93c-7.67,0-14-2.46-18.28-8.65-3.93,5-11.3,8.65-19.75,8.65-10.41,0-19.84-4.91-19.84-15.53,0-10.41,7.95-15.52,17.19-15.52,6.48,0,12.58,2,16.21,5.7V37.93c0-4.71-4.52-7.86-11.3-7.86a21.72,21.72,0,0,0-11.49,3.25,3.94,3.94,0,0,1-2.36.68,4.91,4.91,0,0,1-4.82-4.91A4.81,4.81,0,0,1,403.45,25a32.32,32.32,0,0,1,17.79-5.11c8.35,0,13.95,2.95,16.6,8.16,3.44-4.52,8.25-8.16,17.19-8.16,13.17,0,22.11,10.62,22.11,23,0,4.12-2.65,5.89-7.37,5.89H443.64C444.52,54.54,448.84,59.45,456.41,59.45ZM420,47.07c-5.41,0-9.73,2.16-9.73,6.39s4.32,6.38,9.43,6.38c6.29,0,11.4-4.22,11.4-8v-.59C428.7,48.64,424.38,47.07,420,47.07Zm34.29-17.29c-7.08,0-10.32,5.79-10.81,10.51h21.62C464.86,35.77,461.91,29.78,454.25,29.78Z"/><path class="cls-1" d="M531.27,26.63V65.25c0,18.07-13.95,22.5-25.64,22.5-6.39,0-11.6-1.18-16.71-4.43a5.16,5.16,0,1,1,5.31-8.84,20.47,20.47,0,0,0,11.4,3c6,0,13.06-2.65,13.06-12V60.82c-3.83,4.72-8.84,7.37-14.64,7.37-11.88,0-20.92-8.35-20.92-24.17,0-15.52,8.94-24.17,20.92-24.17a18.27,18.27,0,0,1,14.64,7.27v-.78a6.24,6.24,0,0,1,6.39-6A6.31,6.31,0,0,1,531.27,26.63ZM518.69,51.69V36.36C516.63,33.22,512.11,31,508,31c-7.07,0-12,4.91-12,13.06s4.91,13.07,12,13.07A13.82,13.82,0,0,0,518.69,51.69Z"/><path class="cls-1" d="M565.16,19.85c14.15,0,23.78,10.62,23.78,23,0,4.12-2.65,5.89-7.37,5.89h-27.9c.78,6,5.6,11,13.65,11A20.3,20.3,0,0,0,577,57.09a4.72,4.72,0,0,1,2.36-.59,4.89,4.89,0,0,1,2.26,9.24A31.57,31.57,0,0,1,566,69.67c-14.44,0-25.35-9.73-25.35-25C540.6,31,550.72,19.85,565.16,19.85ZM553.47,40.29h23.38c-.29-4.52-3.43-10.51-11.69-10.51C557.4,29.78,554.06,35.57,553.47,40.29Z"/><path class="cls-1" d="M598,62.89V8.56a6.24,6.24,0,1,1,12.48,0V62.89a6.24,6.24,0,1,1-12.48,0Z"/><path class="cls-1" d="M619.78,60.53A5.25,5.25,0,0,1,625,55.32a5.92,5.92,0,0,1,2.65.69,25.75,25.75,0,0,0,12.87,4c5.41,0,8-1.87,8-4.81,0-3.35-4.12-4.52-9.53-5.61-8.15-1.57-18.67-3.53-18.67-14.83,0-8,7-14.94,19.46-14.94a29.4,29.4,0,0,1,15.62,4.23,4.68,4.68,0,0,1,2.46,4.13A4.82,4.82,0,0,1,653,33a4.72,4.72,0,0,1-2.36-.59,20.66,20.66,0,0,0-10.8-3.05c-4.52,0-7.47,1.68-7.47,4.43,0,2.94,3.73,4,9,5.11,8.15,1.57,19.06,3.73,19.06,15.52,0,8.64-7.37,15.23-20.54,15.23a33.63,33.63,0,0,1-17.48-4.62A5.27,5.27,0,0,1,619.78,60.53Z"/><path class="cls-1" d="M691.21,19.85c14.15,0,23.77,10.62,23.77,23,0,4.12-2.65,5.89-7.36,5.89H679.71c.79,6,5.6,11,13.66,11A20.33,20.33,0,0,0,703,57.09a4.7,4.7,0,0,1,2.36-.59,4.89,4.89,0,0,1,2.26,9.24A31.59,31.59,0,0,1,692,69.67c-14.44,0-25.35-9.73-25.35-25C666.64,31,676.76,19.85,691.21,19.85ZM679.52,40.29H702.9c-.3-4.52-3.44-10.51-11.69-10.51C683.45,29.78,680.11,35.57,679.52,40.29Z"/><path class="cls-1" d="M768.53,35v27.9a6.24,6.24,0,1,1-12.48,0V39.8c0-6.58-3.44-8.84-8.75-8.84a13.5,13.5,0,0,0-10.8,5.6V62.89a6.24,6.24,0,1,1-12.48,0V26.63a6.27,6.27,0,0,1,6.19-6.38,6.37,6.37,0,0,1,6.38,6.38V27a22.11,22.11,0,0,1,16.51-7.18C763.52,19.85,768.53,25.75,768.53,35Z"/></g></g></svg>