<svg xmlns="http://www.w3.org/2000/svg" viewBox="0 0 3586.74 2462.23"><defs><style>.cls-1,.cls-2{fill:none;stroke:#fdeced;stroke-miterlimit:10;stroke-width:6px;opacity:0.25}.cls-1{stroke-linecap:square;}</style></defs><g id="Lag_2" data-name="Lag 2"><g id="Lag_1-2" data-name="Lag 1"><line class="cls-1" x1="1157.86" y1="630.81" x2="1297.83" y2="752.63"/><polyline class="cls-2" points="1437.39 497.52 1377.71 612.67 1426.19 730.71"/><polyline class="cls-2" points="1562.59 503.09 1547.05 700.07 1703.96 728.98"/><path class="cls-2" d="M1666.65,579.87s45.14-52.12,184.28,79.51"/><path class="cls-2" d="M1872,497s213.28,163.89-.77,254.83"/><polyline class="cls-2" points="2138.19 665.77 2056.37 519.43 2215.23 579.87 2172.46 468.61"/><path class="cls-2" d="M1968.15,780.86s54.29,143-51.7,111.8S1816.22,766.74,1764,855.83"/><path class="cls-2" d="M2072.6,759.87s75.75,124.19,188.11,154.92"/><polyline class="cls-2" points="2243.63 806.96 2407.54 837.62 2417.5 999.25 2538.85 1024.54"/><polyline class="cls-2" points="2756.94 912.07 2756.94 912.06 2730.15 757.55 2594.97 930.14"/><line class="cls-2" x1="2602.04" y1="1056.31" x2="2564.83" y2="1070.87"/><polyline class="cls-2" points="2383.61 698.81 2437.41 775.98 2513.48 700.26 2575.38 810.36"/><polyline class="cls-2" points="2522.91 572.3 2639.24 638.87 2755.52 589.21"/><path class="cls-2" d="M2805.37,629s28.54,78.84,95.84,39.42"/><path class="cls-2" d="M2865.9,807.73a325.49,325.49,0,0,0-28.32-25.88"/><path class="cls-2" d="M2163.35,1040.19s94.55-25.81,236.4,30.21"/><polyline class="cls-2" points="2091.65 1117.14 2043.36 967.63 2138.81 973.47 2071.28 919.41"/><polyline class="cls-2" points="1736.25 1098.92 1850.07 1161.79 1964.22 1111.47"/><polyline class="cls-2" points="1632.15 1049.61 1665.55 912.1 1711.54 1054.45 1854.27 960.66"/><line class="cls-2" x1="1523.8" y1="812.68" x2="1663.8" y2="811.94"/><path class="cls-2" d="M1890.13,1033.87s20.89-25.37,94.49-21.78"/><polyline class="cls-2" points="1207.33 548.39 1307.45 484.3 1236.69 407.79 1311.64 357.27"/><polyline class="cls-2" points="1667.73 269.46 1744.55 415.64 1594.48 357.8 1639.68 470.6"/><polyline class="cls-2" points="1546.3 92.23 1599.24 169.35 1675.8 96.58 1736.76 199.06"/><polyline class="cls-2" points="1765.36 39.62 1882.1 101.94 1998.69 54.06"/><polyline class="cls-2" points="1251.87 33.34 1413.9 63.37 1426.07 223.62 1542.88 247.79"/><polyline class="cls-2" points="1203.88 217.12 1175.72 377.76 1014.92 391.49 992.76 510.29"/><polyline class="cls-2" points="925.96 689.58 834.11 803.72 808.51 661.65"/><line class="cls-2" x1="956.8" y1="781.68" x2="956.8" y2="928.68"/><line class="cls-2" x1="930.61" y1="328.6" x2="814.38" y2="463.21"/><path class="cls-2" d="M980.75,282.22s217.36-82.43-.52-253.51"/><path class="cls-2" d="M1185.52,23.07S1200,41.3,1195.2,68.88s-4.52,64.05,53.57,60.59,62.57,33,61.3,53.62-7.34,41.56,8,53.82"/><path class="cls-2" d="M1416.7,302.44s75.9-6.82,69,77"/><polyline class="cls-2" points="910.95 127.85 841.62 227.45 712.25 233.94"/><polyline class="cls-2" points="834.49 48.97 697.27 137.65 648.86 6.8 617.64 133.37"/><line class="cls-2" x1="484.15" y1="47.27" x2="559.38" y2="170.5"/><polyline class="cls-2" points="538.64 303.01 591.76 380.9 669.5 307.55 733.51 412.07"/><path class="cls-2" d="M725.1,507s13.54,84.65,92,36.89,86.12,10,86.12,10"/><path class="cls-2" d="M1108.58,545.11s-68.72,18.35-34.36,78.68,24.5,68.14-12,80.78"/><polyline class="cls-2" points="433.62 29.49 347.19 98.8 286.21 23.76 213.46 72.2 154.59 27.22"/><path class="cls-2" d="M20.37,84.19s99.82-3.69,103.09,85,39.11,91.42,102.5,96.34"/><path class="cls-2" d="M357.47,202.23s-14.54-62.06,79.68-67.78"/><polyline class="cls-2" points="464.33 254.49 269.8 274.47 271.82 436.68"/><polyline class="cls-2" points="398.76 412.84 559.63 442.44 573.46 604.41 693.11 628.1"/><line class="cls-2" x1="696.9" y1="691.22" x2="733.66" y2="792.52"/><path class="cls-2" d="M538.59,723.73s72.49-14,71.07,77.31"/><path class="cls-2" d="M339.08,752.49S353.73,667.31,489.65,567"/><line class="cls-2" x1="158.45" y1="550.99" x2="355.6" y2="536.02"/><polyline class="cls-2" points="91.19 310.74 167.75 451.5 16.47 397.97 54.25 503.52"/><polyline class="cls-2" points="143.49 638.94 39.53 723.02 168.11 787.75"/><path class="cls-2" d="M288.84,630.81s-121.12,36-43.47,145.92"/><polyline class="cls-2" points="414.57 738.6 384.52 899.92 224.3 916.96 203.8 1036.31"/><path class="cls-2" d="M76.39,851.48S-11,865,3.66,970.2"/><polyline class="cls-2" points="141.4 959.14 80.1 1028.17 101.98 1126.85 53.55 1176.01 75.33 1278.02"/><polyline class="cls-2" points="542.8 876.96 470.75 929.85 541.25 1007.2 442.01 1071.7"/><path class="cls-2" d="M321.56,1065.88s-71.29,15.81-32.9,86.37-12.91,76.54-12.91,76.54"/><line class="cls-2" x1="370.26" y1="1155.35" x2="505.08" y2="1270.6"/><polyline class="cls-2" points="647.48 1015.15 589.25 1130.02 636.11 1244.57"/><polyline class="cls-2" points="719.61 893.85 850.16 928.44 717.94 976.47 810.46 1114.29"/><path class="cls-2" d="M911.82,1022.43s56.31,22.61,25,57.91-98.11,150.15-37.33,160.54,85-13.82,85-13.82"/><polyline class="cls-2" points="621 1322.98 713.31 1343.21 716.28 1234.02 835.35 1266.04"/><polyline class="cls-2" points="210.95 1214.59 130.32 1316.51 152.77 1437.57"/><polyline class="cls-2" points="297.31 1396.99 398 1285.44 415.37 1413.63 495.22 1360.13"/><path class="cls-2" d="M589.1,1409.49S443,1603.33,707.71,1636.76"/><polyline class="cls-2" points="431.06 1600.36 290.74 1521.13 247.85 1635.13 211.74 1516.98"/><polyline class="cls-2" points="44.32 1440.3 28.07 1633.87 182.68 1661.44"/><polyline class="cls-2" points="72.32 1724.87 190.58 1800.86 55.18 1828.79 173.03 1943.68 28.8 1941.55"/><polyline class="cls-2" points="293.04 1945.42 276.97 1763.95 433.66 1745.47"/><polyline class="cls-2" points="467.15 1662.75 576.07 1654.54 522.91 1758.17 639.43 1721.22 596.81 1858.97"/><path class="cls-2" d="M421.63,1838.79s208.6,88.33.86,227.46"/><polyline class="cls-2" points="209.73 2037.3 168.91 2139 327.96 2085.64 254.1 2219.26"/><polyline class="cls-2" points="58.98 2090.96 26.82 2211.38 135.57 2215.3 112.33 2307.37"/><path class="cls-2" d="M11.18,2432.65s82-14.91,131.64,28.07"/><polyline class="cls-2" points="188.51 2272.85 225.39 2396.53 340.85 2444.22"/><line class="cls-2" x1="412.02" y1="2134.67" x2="421.19" y2="2313.67"/><polyline class="cls-2" points="394.22 2431.61 386.94 2420.03 471.24 2383.13"/><polyline class="cls-2" points="523.63 2384.56 650.44 2332.47 628.01 2369.86"/><polyline class="cls-2" points="590.1 2249.24 547.92 2137.63 705.33 2202.98 627.56 2051.82"/><path class="cls-2" d="M752.46,1707.77s-110,161-67.36,248.27"/><polyline class="cls-2" points="812.75 1756.73 859.05 1878.58 803.31 1985.98"/><line class="cls-2" x1="902.83" y1="2046.71" x2="1037.31" y2="1942.11"/><polyline class="cls-2" points="1001.39 1858.17 914.69 1785.77 988.94 1716.11 922.44 1656.12"/><path class="cls-2" d="M1078.74,1852.89s70.08-9.94,68.31,73.37"/><polyline class="cls-2" points="1018.29 2076.12 1135.19 2096.58 1015.54 2164.98 1057.24 2188.7"/><path class="cls-2" d="M968.52,2222.14s-96.81,52.92-121-47.56S819,2084.49,757.64,2093"/><path class="cls-2" d="M836.35,2291.73a331.22,331.22,0,0,0-37.34-34"/><polyline class="cls-2" points="1252.48 1924.61 1272.92 1809.87 1437.22 1814.35 1468.94 1655.38"/><polyline class="cls-2" points="1014.18 1512.64 1024.47 1670.29 1152.77 1635.67 1178.01 1803.91"/><polyline class="cls-2" points="741.64 1556.46 779.34 1401.25 973.72 1434.4"/><path class="cls-2" d="M893.44,1537.27s-75.53,5.3-66.26,73.9"/><path class="cls-2" d="M1009.19,1330.74s120.77,129.12,120.66,198.17"/><path class="cls-2" d="M1215.21,1269l-24.87,43.61s-28.93,71-2,79.81,41.32-5,77.72-42.38,106.25,47.53,27.72,106.74"/><polyline class="cls-2" points="1200.79 1603.36 1297.57 1638.8 1365.14 1489.78"/><path class="cls-2" d="M1392.23,1674.32s26.46-91.09,150.54-192.59"/><path class="cls-2" d="M1564.52,1633.08s72.68-11.79,72.26,78.37"/><polyline class="cls-2" points="1454.64 1331.23 1615.86 1361.01 1626.96 1523.82 1749.38 1543.67"/><polyline class="cls-2" points="1543.4 1901.29 1504.61 1860.7 1580.12 1808.23"/><path class="cls-2" d="M1351.91,1926.69s-64.24,15.74-36.23,76.83c6.11,13.33,11.43,23.93,15.48,32.57"/><polyline class="cls-2" points="1829.1 1699.75 1690.73 1664.39 1967.69 1563.1"/><path class="cls-2" d="M1925.09,192.24s-216.54,90.64,3.12,256.45"/><polyline class="cls-2" points="1931.98 347.54 2013.34 386.06 2040.1 278.69 2152.36 335.27"/><polyline class="cls-2" points="2067.61 168.79 2225.97 191.94 2212.29 390.79"/><line class="cls-2" x1="2376.66" y1="325.29" x2="2260.42" y2="454.48"/><line class="cls-2" x1="2219.8" y1="64.68" x2="2078.8" y2="64.68"/><polyline class="cls-2" points="2326.45 33.15 2309.9 228.88 2468.56 255.32"/><polyline class="cls-2" points="2406.06 517.91 2438.74 378.7 2482.4 515.71 2625.16 424.66"/><polyline class="cls-2" points="2525.82 222.03 2485.78 113.84 2644.03 177.42 2562.02 24.23"/><line class="cls-2" x1="2672.24" y1="241.44" x2="2843.64" y2="255.42"/><path class="cls-2" d="M2593,243.53s6.13,134.73,188.42,119.42"/><path class="cls-2" d="M2355.55,591.7s-85.35-11.9-78.45,64.44"/><path class="cls-2" d="M2748.62,436.16s38.46-2.09,58.9,18.79,57.79,7.19,72.67-33.9,38.92-46.63,73.35-27.29,37.07,20.59,51.43,16.51"/><line class="cls-2" x1="3123.1" y1="424.69" x2="3248.66" y2="357.13"/><polyline class="cls-2" points="2926.22 285.45 3065.07 193.88 3110.88 325.71 3142.69 187.86"/><polyline class="cls-2" points="2960.81 157.64 2843.63 96.58 2733.14 144.84"/><polyline class="cls-2" points="3072.7 516.45 3147.74 526.92 3147.75 526.92"/><path class="cls-2" d="M2928.42,587.51s46.13,40.35,95,65.24"/><polyline class="cls-2" points="2978.12 8.34 3040.14 113.44 3117.15 36.59 3170.08 115.75"/><path class="cls-2" d="M3343.36,33.05s-24.3,30.21-62.17,32.57-19.7,56.71-19.7,56.71S3297.58,191,3240.07,204s-49.93,34.43-49.93,34.43"/><line class="cls-2" x1="3501.67" y1="150.75" x2="3443.73" y2="43.85"/><polyline class="cls-2" points="3409.12 241.7 3366.22 132.06 3478.63 176.13"/><path class="cls-2" d="M3585.29,57.29a325.73,325.73,0,0,0-37.8-34.44"/><line class="cls-2" x1="3342.08" y1="279.67" x2="3338.7" y2="327.47"/><path class="cls-2" d="M2407.15,1163.91s34.67-8.1,54.95,18.52"/><polyline class="cls-2" points="2284.71 1121.4 2217.23 1270.18 2059.17 1249.47 2011.47 1354.07"/><line class="cls-2" x1="2000.17" y1="1184.5" x2="1885.35" y2="1310.34"/><path class="cls-2" d="M1408.77,1054.34S1361.32,1177.2,1408,1293"/><path class="cls-2" d="M1504.27,1158.3s-16-69.35,73.21-63.89"/><polyline class="cls-2" points="1598.87 1203.9 1650.99 1284.66 1726.33 1211.02 1788.08 1307.78"/><path class="cls-2" d="M1774.12,1387.29s27.07,10.69,36.33,39.33,41,53.33,76.83,26.67,64.13-21.57,78.34,14.53,20.51,39.16,35.52,43.6"/><polyline class="cls-2" points="2108.04 1483.04 2107.96 1482.56 2192.72 1384.54"/><polyline class="cls-2" points="1039.05 963.92 1062.8 805.98 1262.66 821.33"/><polyline class="cls-2" points="1296.2 859.94 1404.92 818.97 1343.86 976.54 1487.06 895.93"/><path class="cls-2" d="M1188.46,925.75s47.51,53.75-76.54,181.83"/><path class="cls-2" d="M1022.41,1118s97.61,211.31,257.9,1.48"/></g></g></svg>