<svg xmlns="http://www.w3.org/2000/svg" viewBox="0 0 3656.64 2566.89"><defs><style>.cls-1,.cls-2{fill:none;stroke:#fdeced;stroke-miterlimit:10;stroke-width:6px;opacity:0.25}.cls-1{stroke-linecap:square;}</style></defs><g id="Lag_2" data-name="Lag 2"><g id="Lag_1-2" data-name="Lag 1"><line class="cls-1" x1="1157.85" y1="630.81" x2="1297.82" y2="752.63"/><polyline class="cls-2" points="1437.38 497.52 1377.7 612.67 1426.18 730.71"/><polyline class="cls-2" points="1562.58 503.09 1547.04 700.07 1703.95 728.98"/><path class="cls-2" d="M1666.64,579.87s45.14-52.12,184.28,79.51"/><path class="cls-2" d="M1872,497s213.28,163.89-.77,254.83"/><polyline class="cls-2" points="2138.18 665.77 2056.36 519.43 2215.22 579.87 2172.45 468.61"/><path class="cls-2" d="M1968.14,780.86s54.29,143-51.7,111.8S1816.21,766.74,1764,855.83"/><path class="cls-2" d="M2072.59,759.87s75.75,124.19,188.11,154.92"/><polyline class="cls-2" points="2243.62 806.96 2407.53 837.62 2417.49 999.25 2538.84 1024.54"/><polyline class="cls-2" points="2594.96 930.14 2730.14 757.55 2769.3 983.44"/><polyline class="cls-2" points="2564.82 1070.87 2676.39 1027.22 2616.38 1187.38 2760.94 1106.06"/><polyline class="cls-2" points="2383.6 698.81 2437.4 775.98 2513.47 700.26 2575.37 810.36"/><polyline class="cls-2" points="2522.9 572.3 2639.23 638.87 2755.51 589.21"/><path class="cls-2" d="M2805.36,629s28.54,78.84,95.84,39.42"/><path class="cls-2" d="M2837.57,781.85s211.93,165.68-.83,261.53"/><path class="cls-2" d="M3047,1042s71.81,110.9,184.85,153.22"/><polyline class="cls-2" points="3098.01 973.34 3020.64 829.81 3176.54 889.73 3134.05 777.69"/><polyline class="cls-2" points="3171.42 977.01 3224.59 1057.39 3301.39 980.34 3364.35 1086.72"/><path class="cls-2" d="M2163.34,1040.19s94.55-25.81,236.4,30.21"/><polyline class="cls-2" points="2091.64 1117.14 2043.35 967.63 2138.8 973.47 2071.27 919.41"/><polyline class="cls-2" points="1736.24 1098.92 1850.06 1161.79 1964.21 1111.47"/><polyline class="cls-2" points="1632.14 1049.61 1665.54 912.1 1711.53 1054.45 1854.26 960.66"/><line class="cls-2" x1="1523.79" y1="812.68" x2="1663.79" y2="811.94"/><path class="cls-2" d="M1890.12,1033.87s20.89-25.37,94.49-21.78"/><polyline class="cls-2" points="1207.32 548.39 1307.44 484.3 1236.68 407.79 1311.63 357.27"/><polyline class="cls-2" points="1667.72 269.46 1744.54 415.64 1594.47 357.8 1639.67 470.6"/><polyline class="cls-2" points="1546.29 92.23 1599.23 169.35 1675.79 96.58 1736.75 199.06"/><polyline class="cls-2" points="1765.35 39.62 1882.09 101.94 1998.68 54.06"/><polyline class="cls-2" points="1251.86 33.34 1413.89 63.37 1426.06 223.62 1542.87 247.79"/><polyline class="cls-2" points="1203.87 217.12 1175.71 377.76 1014.91 391.49 992.75 510.29"/><polyline class="cls-2" points="925.95 689.58 834.1 803.72 808.5 661.65"/><line class="cls-2" x1="956.79" y1="781.68" x2="956.79" y2="928.68"/><line class="cls-2" x1="930.6" y1="328.6" x2="814.37" y2="463.21"/><path class="cls-2" d="M980.74,282.22s217.36-82.43-.52-253.51"/><path class="cls-2" d="M1185.51,23.07s14.52,18.23,9.68,45.81-4.52,64.05,53.57,60.59,62.57,33,61.3,53.62-7.34,41.56,8,53.82"/><path class="cls-2" d="M1416.69,302.44s75.9-6.82,69,77"/><polyline class="cls-2" points="910.94 127.85 841.61 227.45 712.24 233.94"/><polyline class="cls-2" points="834.48 48.97 697.26 137.65 648.85 6.8 617.63 133.37"/><line class="cls-2" x1="484.14" y1="47.27" x2="559.37" y2="170.5"/><polyline class="cls-2" points="538.63 303.01 591.75 380.9 669.49 307.55 733.5 412.07"/><path class="cls-2" d="M725.09,507s13.54,84.65,92,36.89,86.12,10,86.12,10"/><path class="cls-2" d="M1108.57,545.11s-68.72,18.35-34.36,78.68,24.5,68.14-12,80.78"/><polyline class="cls-2" points="433.61 29.49 347.18 98.8 286.2 23.76 213.45 72.2 154.58 27.22"/><path class="cls-2" d="M20.36,84.19s99.82-3.69,103.09,85,39.11,91.42,102.5,96.34"/><path class="cls-2" d="M357.46,202.23s-14.54-62.06,79.68-67.78"/><polyline class="cls-2" points="464.32 254.49 269.79 274.47 271.81 436.68"/><polyline class="cls-2" points="398.75 412.84 559.62 442.44 573.45 604.41 693.1 628.1"/><line class="cls-2" x1="696.89" y1="691.22" x2="733.65" y2="792.52"/><path class="cls-2" d="M538.58,723.73s72.49-14,71.07,77.31"/><path class="cls-2" d="M339.07,752.49S353.72,667.31,489.64,567"/><line class="cls-2" x1="158.44" y1="550.99" x2="355.59" y2="536.02"/><polyline class="cls-2" points="91.18 310.74 167.74 451.5 16.46 397.97 54.24 503.52"/><polyline class="cls-2" points="143.48 638.94 39.52 723.02 168.1 787.75"/><path class="cls-2" d="M288.83,630.81s-121.12,36-43.47,145.92"/><polyline class="cls-2" points="414.56 738.6 384.51 899.92 224.29 916.96 203.79 1036.31"/><path class="cls-2" d="M76.38,851.48S-11,865,3.65,970.2"/><polyline class="cls-2" points="141.39 959.14 80.09 1028.17 101.97 1126.85 53.54 1176.01 75.32 1278.02"/><polyline class="cls-2" points="542.79 876.96 470.74 929.85 541.24 1007.2 442 1071.7"/><path class="cls-2" d="M321.55,1065.88s-71.29,15.81-32.9,86.37-12.91,76.54-12.91,76.54"/><line class="cls-2" x1="370.25" y1="1155.35" x2="505.07" y2="1270.6"/><polyline class="cls-2" points="647.47 1015.15 589.24 1130.02 636.1 1244.57"/><polyline class="cls-2" points="719.6 893.85 850.15 928.44 717.93 976.47 810.45 1114.29"/><path class="cls-2" d="M911.81,1022.43s56.31,22.61,25,57.91-98.11,150.15-37.33,160.54,85-13.82,85-13.82"/><polyline class="cls-2" points="620.99 1322.98 713.3 1343.21 716.27 1234.02 835.34 1266.04"/><polyline class="cls-2" points="210.94 1214.59 130.31 1316.51 152.76 1437.57"/><polyline class="cls-2" points="297.3 1396.99 397.99 1285.44 415.36 1413.63 495.21 1360.13"/><path class="cls-2" d="M589.09,1409.49S443,1603.33,707.7,1636.76"/><polyline class="cls-2" points="431.05 1600.36 290.73 1521.13 247.84 1635.13 211.73 1516.98"/><polyline class="cls-2" points="44.31 1440.3 28.06 1633.87 182.67 1661.44"/><polyline class="cls-2" points="72.31 1724.87 190.57 1800.86 55.17 1828.79 173.02 1943.68 28.79 1941.55"/><polyline class="cls-2" points="293.03 1945.42 276.96 1763.95 433.65 1745.47"/><polyline class="cls-2" points="467.14 1662.75 576.06 1654.54 522.9 1758.17 639.42 1721.22 596.8 1858.97"/><path class="cls-2" d="M421.62,1838.79s208.6,88.33.86,227.46"/><polyline class="cls-2" points="209.72 2037.3 168.9 2139 327.95 2085.64 254.09 2219.26"/><polyline class="cls-2" points="58.97 2090.96 26.81 2211.38 135.56 2215.3 112.32 2307.37"/><path class="cls-2" d="M11.17,2432.65s153.57-27.93,167.63,102.85"/><polyline class="cls-2" points="188.5 2272.85 225.38 2396.53 340.84 2444.22"/><line class="cls-2" x1="412.01" y1="2134.67" x2="421.18" y2="2313.67"/><polyline class="cls-2" points="471.23 2383.13 386.93 2420.03 441.44 2506.68 329.94 2549.47"/><polyline class="cls-2" points="523.62 2384.56 650.43 2332.47 577.18 2454.59 748.01 2531.03"/><polyline class="cls-2" points="590.09 2249.24 547.91 2137.63 705.32 2202.98 627.55 2051.82"/><path class="cls-2" d="M752.45,1707.77s-110,161-67.36,248.27"/><polyline class="cls-2" points="812.74 1756.73 859.04 1878.58 803.3 1985.98"/><line class="cls-2" x1="902.82" y1="2046.71" x2="1037.3" y2="1942.11"/><polyline class="cls-2" points="1001.38 1858.17 914.68 1785.77 988.93 1716.11 922.43 1656.12"/><path class="cls-2" d="M1078.73,1852.89s70.08-9.94,68.31,73.37"/><polyline class="cls-2" points="1018.28 2076.12 1135.18 2096.58 1015.53 2164.98 1110.31 2218.89 1010.95 2264.93"/><path class="cls-2" d="M968.51,2222.14s-96.81,52.92-121-47.56-28.54-90.09-89.88-81.58"/><path class="cls-2" d="M799,2257.71s208.62,156.11,2.15,251.89"/><path class="cls-2" d="M969,2483.63s17.19-81,150.27-186.85"/><path class="cls-2" d="M1269.36,2330.78s-77.15-9.32-77.28,64.62"/><path class="cls-2" d="M1082.47,2474.65s24.58-7.87,52.17,25.51,61.69-4,75.87-25.44,38.27-40.81,81.1-7.69"/><polyline class="cls-2" points="1369.4 2357.46 1468.99 2424.62 1482.64 2555.09"/><polyline class="cls-2" points="1407.81 2204.79 1248.06 2220.47 1220.71 2076.65"/><line class="cls-2" x1="1425.7" y1="2069.82" x2="1560.4" y2="2187.54"/><polyline class="cls-2" points="1444.82 2247.78 1560.45 2309.33 1674.47 2262.81"/><polyline class="cls-2" points="1569.62 2368.35 1580.01 2490.57 1682.39 2456.78 1692.82 2550.12"/><polyline class="cls-2" points="1252.47 1924.61 1272.91 1809.87 1437.21 1814.35 1468.93 1655.38"/><polyline class="cls-2" points="1014.17 1512.64 1024.46 1670.29 1152.76 1635.67 1178 1803.91"/><polyline class="cls-2" points="741.63 1556.46 779.33 1401.25 973.71 1434.4"/><path class="cls-2" d="M893.43,1537.27s-75.53,5.3-66.26,73.9"/><path class="cls-2" d="M1009.18,1330.74s120.77,129.12,120.66,198.17"/><path class="cls-2" d="M1215.2,1269l-24.87,43.61s-28.93,71-2,79.81,41.32-5,77.72-42.38,106.25,47.53,27.72,106.74"/><polyline class="cls-2" points="1200.78 1603.36 1297.56 1638.8 1365.13 1489.78"/><path class="cls-2" d="M1392.22,1674.32s26.46-91.09,150.54-192.59"/><path class="cls-2" d="M1564.51,1633.08s72.68-11.79,72.26,78.37"/><polyline class="cls-2" points="1454.63 1331.23 1615.85 1361.01 1626.95 1523.82 1749.37 1543.67"/><polyline class="cls-2" points="1580.11 1808.23 1504.6 1860.7 1578.98 1938.53 1472.35 2004.97"/><polyline class="cls-2" points="1695.57 1825.8 1635.14 1946.07 1683.7 2059.87"/><path class="cls-2" d="M1351.9,1926.69s-64.24,15.74-36.23,76.83,39.25,64.71-11.06,86.17"/><polyline class="cls-2" points="1866.59 2030.49 1774.44 1894.31 1904.42 1843.49 1776.3 1812.07"/><polyline class="cls-2" points="1858.17 1707.18 1690.72 1664.39 1967.68 1563.1"/><line class="cls-2" x1="2009.79" y1="1700.68" x2="2009.79" y2="1849.68"/><line class="cls-2" x1="1738.99" y1="2067.06" x2="1787.56" y2="2233.19"/><polyline class="cls-2" points="1933.42 2225.06 1995.14 2327.83 2072.79 2253.73 2125.07 2329.72"/><line class="cls-2" x1="1922.64" y1="2464.38" x2="2087.69" y2="2519.66"/><polyline class="cls-2" points="2052.38 2384.9 2166.92 2449.39 2280.91 2400.53"/><path class="cls-2" d="M1896.72,2265.89a69.49,69.49,0,0,1-34.23,33.58c-24.89,10.93-47.73,48-14.46,84.33s16,60.56-8.35,78-31,11.27-40.35,35.4"/><path class="cls-2" d="M1966.26,1937.4s57.57,27.18,24.59,64.83-154.22,199.27,53.41,142.4"/><polyline class="cls-2" points="2096.4 1877.23 2120.17 1722.91 2318.27 1736.3"/><path class="cls-2" d="M2246.15,1828.31s46,68.64-75.83,183.59"/><path class="cls-2" d="M2095.43,2016.5s94.31,210.87,258.92-3.58"/><path class="cls-2" d="M2209.42,2200.8s49.72-60.55,103.93.35"/><line class="cls-2" x1="2459.24" y1="2222.32" x2="2261.02" y2="2328.77"/><polyline class="cls-2" points="2411.91 2368.21 2487.41 2511.17 2330.44 2457.94 2374.1 2566.15"/><path class="cls-2" d="M1925.08,192.24s-216.54,90.64,3.12,256.45"/><polyline class="cls-2" points="1931.97 347.54 2013.33 386.06 2040.09 278.69 2152.35 335.27"/><polyline class="cls-2" points="2067.6 168.79 2225.96 191.94 2212.28 390.79"/><line class="cls-2" x1="2376.65" y1="325.29" x2="2260.41" y2="454.48"/><line class="cls-2" x1="2219.79" y1="64.68" x2="2078.79" y2="64.68"/><polyline class="cls-2" points="2326.44 33.15 2309.89 228.88 2468.55 255.32"/><polyline class="cls-2" points="2406.05 517.91 2438.73 378.7 2482.39 515.71 2625.15 424.66"/><polyline class="cls-2" points="2525.81 222.03 2485.77 113.84 2644.02 177.42 2562.01 24.23"/><line class="cls-2" x1="2672.23" y1="241.44" x2="2843.63" y2="255.42"/><path class="cls-2" d="M2593,243.53s6.13,134.73,188.42,119.42"/><path class="cls-2" d="M2355.54,591.7s-85.35-11.9-78.45,64.44"/><path class="cls-2" d="M2748.61,436.16s38.46-2.09,58.9,18.79,57.79,7.19,72.67-33.9,38.92-46.63,73.35-27.29,37.07,20.59,51.43,16.51"/><line class="cls-2" x1="3123.09" y1="424.69" x2="3248.65" y2="357.13"/><polyline class="cls-2" points="2926.21 285.45 3065.06 193.88 3110.87 325.71 3142.68 187.86"/><polyline class="cls-2" points="2960.8 157.64 2843.62 96.58 2733.13 144.84"/><polyline class="cls-2" points="3072.69 516.45 3227.86 538.09 3217.76 735.55"/><line class="cls-2" x1="3298.79" y1="587.68" x2="3442.79" y2="587.68"/><path class="cls-2" d="M2928.41,587.51s131.24,114.81,185.45,76.54"/><path class="cls-2" d="M3366.63,759.81s-81.52-9.81-77.94,64.59"/><polyline class="cls-2" points="2978.11 8.34 3040.13 113.44 3117.14 36.59 3170.07 115.75"/><path class="cls-2" d="M3343.35,33.05s-24.3,30.21-62.17,32.57-19.7,56.71-19.7,56.71S3297.57,191,3240.06,204s-49.93,34.43-49.93,34.43"/><polyline class="cls-2" points="3409.11 241.7 3366.21 132.06 3525.35 194.45 3443.72 43.85"/><path class="cls-2" d="M3547.48,22.85s209.76,156.08,3,259"/><polyline class="cls-2" points="3342.07 279.67 3328.24 475.12 3481.04 503.22"/><path class="cls-2" d="M3443.09,354.84s35.21-56.58,182.86,74.77"/><polyline class="cls-2" points="3622.14 588.51 3564.78 742.5 3449.74 665.37 3501.59 787.25"/><polyline class="cls-2" points="3379.23 887.02 3498.44 952.95 3613.99 905.54"/><polyline class="cls-2" points="3486.82 1053.85 3561.32 1199.19 3408.3 1144.01 3449.14 1252.55"/><path class="cls-2" d="M3593.84,1075.4s67.26-11.19,44.84-91.62"/><polyline class="cls-2" points="3630.54 1203.97 3602.36 1366.07 3438.23 1379.9 3418.47 1501.01"/><polyline class="cls-2" points="3100.67 1211.57 2904.57 1196.82 2880.04 1356.62"/><line class="cls-2" x1="2799.79" y1="1175.68" x2="2799.79" y2="1318.68"/><polyline class="cls-2" points="3114.95 1312.58 3223.42 1267.7 3163.11 1427.36 3313.85 1347.98"/><polyline class="cls-2" points="3345.25 1403.93 3325.78 1597.51 3482.27 1622.31"/><path class="cls-2" d="M3032.92,1319.34s50.89,35.29-76.76,183.08"/><polyline class="cls-2" points="2568.44 1289.92 2694.88 1321.88 2562.21 1368.17 2655.18 1513.85"/><polyline class="cls-2" points="2518.32 1410.7 2457.59 1521.29 2503.46 1639.47"/><polyline class="cls-2" points="2283.46 1460.24 2382.41 1403.35 2314.34 1327 2390.92 1273.41"/><path class="cls-2" d="M2407.14,1163.91s70.71-16.52,69.26,75.19"/><polyline class="cls-2" points="2284.7 1121.4 2217.22 1270.18 2059.16 1249.47 2011.46 1354.07"/><line class="cls-2" x1="2000.16" y1="1184.5" x2="1885.34" y2="1310.34"/><path class="cls-2" d="M1408.76,1054.34S1361.31,1177.2,1408,1293"/><path class="cls-2" d="M1504.26,1158.3s-16-69.35,73.21-63.89"/><polyline class="cls-2" points="1598.86 1203.9 1650.98 1284.66 1726.32 1211.02 1788.07 1307.78"/><path class="cls-2" d="M1774.11,1387.29s27.07,10.69,36.33,39.33,41,53.33,76.83,26.67,64.13-21.57,78.34,14.53,20.51,39.16,35.52,43.6"/><polyline class="cls-2" points="2192.71 1384.54 2107.95 1482.56 2127.8 1602.9"/><line class="cls-2" x1="2213.86" y1="1547.68" x2="2348.07" y2="1660.05"/><polyline class="cls-2" points="2414.89 1662.07 2344.82 1810.97 2466.04 1762.54 2405.36 1919.14 2551.91 1837.47"/><polyline class="cls-2" points="2547.94 1942.08 2689.28 1851.47 2735.08 1986.41 2767.49 1849.63"/><path class="cls-2" d="M2639.05,1620.11l20.94,41.34s13.61,40-9.54,48.14-62.74,14.76-96.21-37.36"/><polyline class="cls-2" points="2915.78 1711.2 2957.87 1792.34 3041.32 1726.23 3100.87 1828.38"/><path class="cls-2" d="M2745.45,1411.56s9.72,25.43,1.71,39.69-34.81,65.73,24.72,83.9,60.63,34.39,50.65,67-14.74,26.34-10.79,55.8"/><path class="cls-2" d="M2791.47,1732.25s160.34,128.42,55.75,252.52"/><line class="cls-2" x1="2757.88" y1="2055.28" x2="2845.8" y2="2167.47"/><polyline class="cls-2" points="2961.56 1945.65 2944.29 2144.39 3099.12 2171.54"/><polyline class="cls-2" points="2558.49 2318.55 2610.42 2167.01 2801.97 2219.34"/><line class="cls-2" x1="2915.79" y1="2284.68" x2="3059.79" y2="2282.97"/><polyline class="cls-2" points="2572.19 2440.24 2696.15 2403.31 2744.38 2287.78"/><path class="cls-2" d="M2397.41,2100.57s32.05-1.67,51,17.29,52.84,20.06,76.12-34.92,76.3-17.88,76.3-17.88,18.66,19.74,44.15,12.53"/><path class="cls-2" d="M2742.34,2449.6s43.42,55.18,74.29,61.36,68.81-6.55,40.57-48.22-43.85-79-.51-95.34,91.91,58.72,91.91,58.72"/><polyline class="cls-2" points="3059.25 2509.76 3092.63 2375.55 3137.3 2514.78 3278.32 2423.32"/><path class="cls-2" d="M3155.36,2300.84l21.63-31.45s16.79-17.88,38.7,2.69,50.73,56.64,87.32,64.43,80.35,14.48,73.2-44.07-10-72.55-10-72.55"/><line class="cls-2" x1="3407.31" y1="2375.57" x2="3309.98" y2="2520.92"/><polyline class="cls-2" points="3443.8 2440.34 3520.12 2535.18 3588.3 2451.09 3650.17 2517.83"/><path class="cls-2" d="M3522.76,2366s-10.19-22.62,3.45-51.11,4.76-60.52-45.59-71.91-44-43.23-36.23-71.32,5.46-40.94,2.73-50.79"/><polyline class="cls-2" points="3632.29 2023.87 3590.01 2142.44 3654.35 2248.98"/><path class="cls-2" d="M3007.75,2016s52-42.73,182.22,82.22"/><path class="cls-2" d="M3254.73,2139.8s216.22-80.82,1.38-257.73"/><line class="cls-2" x1="3149.98" y1="1913.21" x2="3275.17" y2="1788.2"/><line class="cls-2" x1="3348.79" y1="1738.68" x2="3493.79" y2="1739.87"/><polyline class="cls-2" points="3434.26 1971.17 3468.32 1843.12 3516.21 1976.09 3655.55 1885.67"/><polyline class="cls-2" points="3147.38 1720.48 3171.34 1598.41 3285.91 1536.15"/><path class="cls-2" d="M3141.46,1488.92s-142.7,216.72-256.78,5.94"/><path class="cls-2" d="M3507.49,1507.54s252.83,80,81.16,244"/><polyline class="cls-2" points="1039.04 963.92 1062.79 805.98 1262.65 821.33"/><polyline class="cls-2" points="1296.19 859.94 1404.91 818.97 1343.85 976.54 1487.05 895.93"/><path class="cls-2" d="M1188.45,925.75s47.51,53.75-76.54,181.83"/><path class="cls-2" d="M1022.4,1118s97.61,211.31,257.9,1.48"/></g></g></svg>