<svg xmlns="http://www.w3.org/2000/svg" viewBox="0 0 257.94 257.94"><defs><style>.cls-1{fill:#f2d3c8;}.cls-2{fill:#ec672c;}.cls-3{fill:#fff;}</style></defs><g id="Lag_2" data-name="Lag 2"><g id="Lag_1-2" data-name="Lag 1"><circle class="cls-1" cx="127.85" cy="130.09" r="106.69"/><path class="cls-2" d="M142,167.71l-10.5-10.5a5.26,5.26,0,0,0-7.43,0l-10.5,10.5a5.25,5.25,0,0,0,3.71,9h21A5.26,5.26,0,0,0,142,167.71Z"/><path class="cls-2" d="M96.27,103.16a26.26,26.26,0,1,0,26.25,26.26A26.29,26.29,0,0,0,96.27,103.16Zm0,42.08a15.82,15.82,0,1,1,15.82-15.82A15.89,15.89,0,0,1,96.27,145.24Z"/><path class="cls-2" d="M159.28,103.16a26.26,26.26,0,1,0,26.25,26.26A26.28,26.28,0,0,0,159.28,103.16Zm0,42.08a15.82,15.82,0,1,1,15.82-15.82A15.89,15.89,0,0,1,159.28,145.24Z"/><path class="cls-2" d="M204.82,135a78.32,78.32,0,0,0-21.36-71.78h0A78.72,78.72,0,0,0,50.73,135a31.71,31.71,0,0,0-.33,19.49,30.75,30.75,0,0,0,24,21.44c1.33.38,1.41,0,4,.44a21.4,21.4,0,0,0,2.15.27V197a15.63,15.63,0,0,0,9.55,14.48,99.46,99.46,0,0,0,37.7,7.93h0a99.25,99.25,0,0,0,37.7-7.94A15.61,15.61,0,0,0,175,197V176.62c.73-.05,1.4-.14,2.12-.25,2.77-.42,2.88,0,4.28-.5a30.79,30.79,0,0,0,23.8-21.64A31.74,31.74,0,0,0,204.82,135Zm-9.68,16.31a20.36,20.36,0,0,1-16.21,14.33c-4.29.14-3.69,1-8.11.1a5.25,5.25,0,0,0-6.29,5.14V197a5.15,5.15,0,0,1-3.1,4.79c-1.92.8-4.5,1.7-7.47,2.66V193.05a5.13,5.13,0,0,0-5.18-5.18,5.25,5.25,0,0,0-5.25,5.25v14.12A84.79,84.79,0,0,1,133,208.61V193.05a5.13,5.13,0,0,0-5.18-5.18,5.25,5.25,0,0,0-5.25,5.25v15.56A83.75,83.75,0,0,1,112,207.17V193.05a5.14,5.14,0,0,0-5.19-5.18,5.26,5.26,0,0,0-5.25,5.25v11.36c-3-1-5.48-1.93-7.4-2.73A5.31,5.31,0,0,1,91,196.89V170.83a5.14,5.14,0,0,0-6.22-5.08c-4.68.95-3.65,0-8.28-.1a20.32,20.32,0,0,1-16-14.14,21.31,21.31,0,0,1,.59-14.15,5.27,5.27,0,0,0,.25-3.14,68.22,68.22,0,1,1,132.93,0,5.23,5.23,0,0,0,.25,3.13A21.29,21.29,0,0,1,195.14,151.32Z"/><path class="cls-3" d="M129,0a129,129,0,1,0,129,129A129,129,0,0,0,129,0Zm-1.12,236.78A106.69,106.69,0,1,1,234.54,130.09,106.69,106.69,0,0,1,127.85,236.78Z"/><rect class="cls-3" x="4.44" y="115.08" width="247.94" height="30.46" transform="translate(-47.95 81.66) rotate(-30)"/></g></g></svg>