<svg xmlns="http://www.w3.org/2000/svg" viewBox="0 0 272.27 257.94"><defs><style>.cls-1,.cls-3{fill:#ec672c;}.cls-2,.cls-4{fill:#fff;}.cls-3{opacity:0.22;}.cls-4,.cls-5{stroke:#ec672c;stroke-miterlimit:10;stroke-width:2px;}.cls-5{fill:none;}</style></defs><g id="Lag_2" data-name="Lag 2"><g id="Lag_1-2" data-name="Lag 1"><g id="yBbPGp.tif"><path class="cls-1" d="M270.41,11.82a11.19,11.19,0,0,0,1.86,0Z"/></g><circle class="cls-2" cx="128.97" cy="128.97" r="128.97"/><path class="cls-3" d="M42.39,204.59c0,3.67,19.7,31.76,80.21,31.76S205,208.68,205,205s-51.94,12.18-82.43,12.18S42.39,200.92,42.39,204.59Z"/><path class="cls-4" d="M230,139.13A107.46,107.46,0,0,1,145.42,222h0A107.38,107.38,0,0,1,20.1,139.13a18.58,18.58,0,0,1,18.13-22.49H211.85A18.56,18.56,0,0,1,230,139.13Z"/><path class="cls-4" d="M66.45,128S50.55,131.36,55,150s11.84,21.81,34.14,37.85,16.87-34,13-49.39S66.45,128,66.45,128Z"/><path class="cls-4" d="M198.91,194.45A106.87,106.87,0,0,1,145.42,222h0l5.22-27.54s27.58-30.37,42.46-29.09C207.71,166.64,199.2,193.52,198.91,194.45Z"/><path class="cls-1" d="M248.42,26.17a7.94,7.94,0,0,0-3.61-4.71A10.38,10.38,0,0,0,241.18,20a7.79,7.79,0,0,0-2-.21,1.64,1.64,0,0,1-1.9-1.29,10.44,10.44,0,0,0-2.77-4.34,16.94,16.94,0,0,0-2.85-2.45A20.52,20.52,0,0,0,228,10.1a8,8,0,0,0-7.22,0,20.86,20.86,0,0,0-3.59,1.65,16.88,16.88,0,0,0-2.84,2.45,10.36,10.36,0,0,0-2.78,4.34,1.63,1.63,0,0,1-1.9,1.29,7.67,7.67,0,0,0-2,.21,10.5,10.5,0,0,0-3.64,1.42,7.88,7.88,0,0,0-3.6,4.71c-.6,2.5-.8,5.1.83,7.49,1.82,2.68,4.1,4.63,7.44,4.66,5.23,0,10.47,0,15.71,0s10.48,0,15.72,0c3.34,0,5.62-2,7.44-4.66C249.21,31.27,249,28.67,248.42,26.17Zm-4,7.22a7.58,7.58,0,0,1-5.59,2.2c-4.8,0-9.6,0-14.41,0s-9.61,0-14.41,0a7.57,7.57,0,0,1-5.58-2.2A5.91,5.91,0,0,1,203,27.2a6.38,6.38,0,0,1,3.39-4,11.05,11.05,0,0,1,3.44-.46,6.94,6.94,0,0,1,1.11.1c1.91.05,2.7-.36,3-2.24.33-2.08,1.61-3.47,2.8-5a10.92,10.92,0,0,1,3-2.06,9.6,9.6,0,0,1,9.44,0c1,.66,2.18,1,3,2.06,1.19,1.53,2.48,2.92,2.81,5,.3,1.88,1.09,2.29,3,2.24a7,7,0,0,1,1.11-.1,11.15,11.15,0,0,1,3.45.46,6.37,6.37,0,0,1,3.38,4A5.91,5.91,0,0,1,244.43,33.39Z"/><path class="cls-1" d="M74.55,55.75a11.73,11.73,0,0,0-5.33-7,15.52,15.52,0,0,0-5.38-2.1,11.65,11.65,0,0,0-3-.31A2.42,2.42,0,0,1,58,44.47a15.3,15.3,0,0,0-4.1-6.41,25.28,25.28,0,0,0-4.2-3.62A31.48,31.48,0,0,0,44.44,32a16.33,16.33,0,0,0-5.34-1.26A16.27,16.27,0,0,0,33.76,32a31.22,31.22,0,0,0-5.31,2.45,25.69,25.69,0,0,0-4.2,3.62,15.4,15.4,0,0,0-4.1,6.41,2.42,2.42,0,0,1-2.81,1.91,11.65,11.65,0,0,0-3,.31A15.59,15.59,0,0,0,9,48.79a11.67,11.67,0,0,0-5.32,7c-.89,3.7-1.18,7.54,1.22,11.08,2.69,4,6.06,6.84,11,6.88q11.61.08,23.23.06t23.23-.06c4.93,0,8.3-2.92,11-6.88C75.73,63.29,75.43,59.45,74.55,55.75Zm-5.9,10.67a11.18,11.18,0,0,1-8.26,3.26c-7.09.06-14.19,0-21.29,0s-14.2,0-21.3,0a11.19,11.19,0,0,1-8.26-3.26,8.73,8.73,0,0,1-2.12-9.14,9.4,9.4,0,0,1,5-5.87c1.51-.67,3.37-.53,5.08-.69a13.14,13.14,0,0,1,1.65.15c2.82.08,4-.53,4.42-3.31.49-3.07,2.39-5.12,4.15-7.38,1.17-1.5,2.91-2.08,4.39-3.06a12,12,0,0,1,7-1.82,12,12,0,0,1,7,1.82c1.48,1,3.22,1.56,4.39,3.06,1.77,2.26,3.66,4.31,4.15,7.38.44,2.78,1.61,3.39,4.42,3.31a13.49,13.49,0,0,1,1.65-.15c1.71.16,3.58,0,5.09.69a9.41,9.41,0,0,1,5,5.87A8.73,8.73,0,0,1,68.65,66.42Z"/><path class="cls-2" d="M68.5,67.16a11.19,11.19,0,0,1-8.27,3.25c-7.09.06-14.19,0-21.29,0s-14.21,0-21.3,0a11.16,11.16,0,0,1-8.25-3.25A8.75,8.75,0,0,1,7.26,58a9.42,9.42,0,0,1,5-5.87c1.51-.66,3.37-.52,5.09-.68a15.37,15.37,0,0,1,1.64.15c2.82.09,4-.53,4.43-3.31.49-3.08,2.38-5.12,4.14-7.38,1.18-1.51,2.91-2.08,4.39-3.06a12.07,12.07,0,0,1,7-1.82,12,12,0,0,1,7,1.82c1.48,1,3.22,1.55,4.39,3.06,1.76,2.26,3.67,4.3,4.15,7.38.45,2.78,1.62,3.4,4.42,3.31a15.61,15.61,0,0,1,1.64-.15c1.72.16,3.58,0,5.1.68a9.44,9.44,0,0,1,5,5.87A8.74,8.74,0,0,1,68.5,67.16Z"/><path class="cls-2" d="M245.37,33.43a7.72,7.72,0,0,1-5.71,2.25c-4.91,0-9.82,0-14.74,0s-9.83,0-14.73,0a7.72,7.72,0,0,1-5.71-2.25A6,6,0,0,1,203,27.1,6.51,6.51,0,0,1,206.47,23a11.61,11.61,0,0,1,3.52-.47,11,11,0,0,1,1.14.1c2,.06,2.76-.37,3.06-2.29.34-2.13,1.65-3.54,2.87-5.1.82-1,2-1.45,3-2.12a9.89,9.89,0,0,1,9.66,0c1,.67,2.23,1.07,3,2.12,1.22,1.56,2.54,3,2.88,5.1.3,1.92,1.11,2.35,3.05,2.29a11.21,11.21,0,0,1,1.14-.1,11.68,11.68,0,0,1,3.53.47,6.5,6.5,0,0,1,3.45,4.06A6,6,0,0,1,245.37,33.43Z"/><path class="cls-5" d="M155.85,68.92c5,.35,10.34-5,10.28-10.27a10.34,10.34,0,0,0-20.68,0C145.41,63.94,150.7,69.33,155.85,68.92Z"/><path class="cls-5" d="M187,82.82c0-2.12-.89-3.14-2.95-3.34a40.52,40.52,0,0,0-4.41-.11c-3.47,0-6.94,0-10.4.15-2,.1-3.06,1.43-3.06,3.44q0,9,0,18.08a3.14,3.14,0,0,0,3.33,3.31q7.16,0,14.31,0c2.14,0,3.17-1,3.19-3.19,0-3,0-6,0-9S187.07,85.94,187,82.82Z"/><path class="cls-5" d="M108.36,73a6.55,6.55,0,0,0,3.69-.21c1.76-.58,2-.55,2,1.37q0,20.5,0,41c0,1.54-.17,1.7-1.74,1.71h6.41c-1-.15-1-.77-1-2.74,0-14.11,0-28.22-.06-42.32a5,5,0,0,1,1.93-4.23c3.25-2.77,6.58-5.45,9.83-8.22,1.41-1.2,2.64-2.59,4-3.8s3.2-2.5,4.74-3.83c2.14-1.86,4.18-3.86,6.34-5.7s4.33-3.45,6.46-5.21c1.59-1.31,3.12-2.69,4.76-4.13,2.5,2.17,4.89,4.28,7.32,6.34,2.19,1.87,4.44,3.69,6.64,5.55,1.22,1,2.38,2.13,3.6,3.17,2.53,2.14,5.08,4.27,7.62,6.39s5.21,4.28,7.75,6.48a61.62,61.62,0,0,1,4.67,4.47,3.11,3.11,0,0,1,.42,1.94q0,20.83,0,41.67c0,.87,0,1.74,0,2.61.06,1.09-.37,1.57-1.51,1.57q-15.44,0-30.87,0c-1,0-1.57-.34-1.52-1.43.14-2.84-1.33-4.81-3.4-6.51a2.33,2.33,0,0,1-.72-1.63c-.07-3.91.05-7.82-.07-11.72a33.33,33.33,0,0,0-.77-7.48,12.72,12.72,0,0,0-5-7.34,20.65,20.65,0,0,0-3.41-2.09,10.84,10.84,0,0,0-3.5-.82c-2.91-.18-5.85-.27-8.47,1.35a17.87,17.87,0,0,0-5,4.28c-2.61,3.42-3.15,7.28-3.07,11.4s0,8.33,0,12.5a2,2,0,0,1-1,1.91,6.23,6.23,0,0,0-3.17,5.72c.06,1.27-.5,1.81-1.75,1.86l79,0c-2.17,0-2.21,0-2.21-2.16v-40a11.29,11.29,0,0,1,0-1.3c.1-1.07.58-1.3,1.58-.89a10.16,10.16,0,0,0,2,.54,7,7,0,0,0,4.24-.91,8.16,8.16,0,0,0,4.45-5.26c1.14-3.93-.9-6.77-3.63-9.21-2.9-2.59-5.84-5.15-8.88-7.57A4.8,4.8,0,0,1,195.4,46c0-6.34,0-12.68,0-19,0-2.33-2.75-5.53-5-5.46-3.47.11-6.94,0-10.41.05-3.09.07-4.93,2.07-4.95,5.17,0,.78,0,1.56,0,2.34a14.79,14.79,0,0,1-.29,1.64c-.48-.35-.76-.53-1-.74-1.66-1.4-3.32-2.79-4.95-4.21-2.62-2.26-5.3-4.47-7.82-6.84-2.89-2.72-7-3.21-9.54-.59-.6.61-1.31,1.12-2,1.68-3,2.54-6,5.06-9,7.64-2.25,1.95-4.4,4-6.66,6-4.2,3.61-8.47,7.13-12.67,10.73-3.09,2.64-6.12,5.35-9.2,8-2.61,2.27-5.33,4.42-7.82,6.81a6.94,6.94,0,0,0-2.53,5.48A9,9,0,0,0,102.83,69,8.75,8.75,0,0,0,108.36,73Z"/></g></g></svg>