<svg xmlns="http://www.w3.org/2000/svg" viewBox="0 0 257.94 291.73"><defs><style>.cls-1,.cls-3,.cls-4{fill:#fff;}.cls-2{fill:#ec672c;opacity:0.22;}.cls-3,.cls-4{stroke:#ec672c;stroke-miterlimit:10;}.cls-3{stroke-width:2px;}</style></defs><g id="Lag_2" data-name="Lag 2"><g id="Lag_1-2" data-name="Lag 1"><circle class="cls-1" cx="128.97" cy="162.76" r="128.97"/><ellipse class="cls-2" cx="130.42" cy="261.99" rx="37.07" ry="6.64"/><path class="cls-3" d="M103.94,29.33C104.54,12.87,115.14,1,129.14,1c14.72,0,25.48,13.23,25.09,30.74s-10.37,29.11-25.28,29C113.3,60.72,103.25,48.07,103.94,29.33Z"/><path class="cls-3" d="M179.62,163.68c-.52,11.24-5.6,16.12-16.76,14.57-6.37-.89-6,2.14-6.33,6.08-1.49,18.19-3,36.37-4.58,54.54-1.41,15.74-7.76,22.34-21.54,22.74-15.53.45-23-6.43-24.27-22.26-1.45-17.8-3.11-35.59-4.34-53.41-.4-5.64-.43-8.94-8.31-7.37-9.1,1.82-14.59-4.42-14.79-13.24-.44-19-1.24-38.15.4-57,2.14-24.55,26.34-42.47,53.15-41.46,24.94,1,46.06,21.07,47.34,45.48.43,8.35.07,16.75.07,25.12h0C179.7,146.18,180,155,179.62,163.68Z"/><line class="cls-4" x1="88.89" y1="162.36" x2="88.89" y2="110.44"/><line class="cls-4" x1="168.5" y1="162.36" x2="168.5" y2="110.44"/></g></g></svg>